<svg width="43" height="35" viewBox="0 0 43 35" fill="none" xmlns="http://www.w3.org/2000/svg">
<path d="M22.5209 4.09467H8.59924C6.30605 4.09467 5.15943 4.09467 4.28355 4.54096C3.51309 4.93351 2.8867 5.55991 2.49414 6.33037C2.04785 7.20625 2.04785 8.35287 2.04785 10.6461V26.2056C2.04785 28.4988 2.04785 29.6455 2.49414 30.5213C2.8867 31.2917 3.51309 31.9182 4.28355 32.3107C5.15943 32.757 6.30605 32.757 8.59924 32.757H32.348C34.6412 32.757 35.7879 32.757 36.6637 32.3107C37.4341 31.9182 38.0606 31.2917 38.4531 30.5213C38.8994 29.6455 38.8994 28.4988 38.8994 26.2056V20.4731M2.04785 10.2366L13.2064 17.6757C15.8323 19.4261 17.1453 20.3016 18.5643 20.6418C19.8193 20.9426 21.1279 20.9426 22.3829 20.6418C23.8019 20.3016 25.1149 19.4261 27.7407 17.6757M40.9467 7.16563C40.9467 9.99237 38.6552 12.2839 35.8284 12.2839C33.0017 12.2839 30.7102 9.99237 30.7102 7.16563C30.7102 4.33889 33.0017 2.04736 35.8284 2.04736C38.6552 2.04736 40.9467 4.33889 40.9467 7.16563Z" stroke="#E3FF15" stroke-width="4.09462" stroke-linecap="round" stroke-linejoin="round"/>
</svg>
