<svg width="113" height="37" viewBox="0 0 113 37" fill="none" xmlns="http://www.w3.org/2000/svg">
<path d="M13.898 0H14.9015C18.3853 0.0757353 21.8123 1.47684 24.2737 3.95717C23.3649 4.88493 22.4371 5.77482 21.5472 6.70258C20.1651 5.45294 18.4989 4.48732 16.6813 4.14651C13.9926 3.57849 11.0958 4.08971 8.84265 5.62335C6.38125 7.23272 4.71507 9.95919 4.35533 12.875C3.95772 15.7529 4.77188 18.7824 6.64632 21.0166C8.44504 23.1939 11.1904 24.5572 14.0305 24.6518C16.6813 24.8033 19.4456 23.9892 21.3768 22.1336C22.8915 20.8272 23.5921 18.8392 23.8193 16.9079C20.6763 16.9079 17.5333 16.9268 14.3903 16.9079V13.0075H27.625C28.3066 17.1919 27.3221 21.9064 24.1412 24.898C22.0206 27.0186 19.0858 28.2682 16.0943 28.5143C13.1974 28.7984 10.2059 28.2493 7.63088 26.8482C4.54467 25.2009 2.08327 22.4177 0.871507 19.1421C-0.264523 16.1316 -0.283456 12.7235 0.776838 9.69412C1.74246 6.92978 3.59798 4.48732 5.98364 2.78327C8.27463 1.09816 11.0579 0.170404 13.898 0Z" fill="#020202"/>
<path d="M89.8213 0.984863H93.8731V28.0224C92.5288 28.0224 91.1656 28.0413 89.8213 28.0034C89.8402 19.0099 89.8213 9.99736 89.8213 0.984863Z" fill="#020202"/>
<path d="M36.6371 10.3569C39.1364 9.88358 41.8439 10.4137 43.9077 11.9095C45.7822 13.2349 47.0886 15.3176 47.4862 17.5896C47.9974 20.2214 47.3537 23.0994 45.6496 25.1821C43.813 27.511 40.8026 28.7606 37.8678 28.5713C35.1792 28.4198 32.5664 27.0755 30.9759 24.8792C29.1772 22.4556 28.7417 19.1233 29.7263 16.2832C30.7108 13.2349 33.4941 10.906 36.6371 10.3569ZM37.2051 13.9543C36.1827 14.2194 35.236 14.8064 34.5544 15.6395C32.7178 17.8358 32.8314 21.4143 34.8573 23.4591C36.0123 24.633 37.7542 25.1821 39.3636 24.8602C40.8594 24.5952 42.1658 23.5917 42.8853 22.2663C44.1349 20.0132 43.7752 16.908 41.8629 15.1472C40.6322 14.0112 38.8334 13.5378 37.2051 13.9543Z" fill="#020202"/>
<path d="M56.7064 10.3569C59.5654 9.80777 62.6895 10.603 64.829 12.61C68.3128 15.7341 68.6915 21.5846 65.7189 25.182C63.9202 27.4541 61.0043 28.7037 58.1264 28.5712C55.381 28.4955 52.6735 27.1322 51.0452 24.8791C49.2086 22.3988 48.811 18.9907 49.8523 16.0938C50.8937 13.1401 53.6202 10.887 56.7064 10.3569ZM57.2744 13.9543C56.252 14.2194 55.3053 14.8063 54.6236 15.6205C52.806 17.7789 52.8817 21.3006 54.8319 23.3644C55.9869 24.5951 57.7856 25.201 59.4518 24.8602C60.9286 24.5762 62.254 23.5916 62.9735 22.2662C64.2042 19.9942 63.8444 16.889 61.9132 15.1282C60.6825 13.9921 58.8838 13.5377 57.2744 13.9543Z" fill="#020202"/>
<path d="M73.7289 11.4551C75.9063 10.0919 78.8031 9.7132 81.1509 10.8871C81.8894 11.209 82.4952 11.7581 83.0822 12.3071C83.1011 11.7959 83.0822 11.2658 83.1011 10.7356C84.3697 10.7546 85.6383 10.7356 86.9258 10.7546V27.4542C86.9068 29.9724 86.2631 32.6421 84.4454 34.4786C82.4574 36.5046 79.409 37.1294 76.6636 36.7128C73.7289 36.2774 71.1728 34.1378 70.0368 31.4303C71.1728 30.8812 72.3656 30.4457 73.5395 29.9345C74.2022 31.4871 75.5465 32.8125 77.2316 33.1154C78.9167 33.4184 80.8669 33.0018 81.9651 31.6007C83.139 30.1617 83.139 28.1926 83.0822 26.4318C82.2112 27.2838 81.2077 28.0411 79.996 28.3252C77.3642 29.0636 74.4673 28.1547 72.4414 26.375C70.3965 24.5952 69.1848 21.8498 69.2984 19.1233C69.3552 16.0371 71.0971 13.0645 73.7289 11.4551ZM77.6482 13.8786C76.4932 14.068 75.414 14.7117 74.6756 15.6016C72.8958 17.7222 72.8958 21.1114 74.6945 23.1941C75.7169 24.4248 77.3642 25.1064 78.9546 24.936C80.4504 24.7845 81.8326 23.8378 82.571 22.5314C83.8206 20.3161 83.6123 17.3057 81.9272 15.3744C80.8859 14.1816 79.2197 13.5946 77.6482 13.8786Z" fill="#020202"/>
<path d="M98.7399 12.4208C101.012 10.3002 104.515 9.58076 107.431 10.6979C110.195 11.7392 111.956 14.371 112.846 17.0786C108.737 18.7826 104.647 20.4677 100.539 22.1718C101.107 23.251 101.978 24.2355 103.151 24.6332C104.799 25.2201 106.768 25.0118 108.15 23.9137C108.699 23.4971 109.135 22.948 109.551 22.4179C110.592 23.1185 111.634 23.8001 112.675 24.5006C111.198 26.7159 108.718 28.2685 106.048 28.5146C103.095 28.8743 99.9517 27.7383 98.0393 25.4284C94.8963 21.7931 95.1993 15.6964 98.7399 12.4208ZM100.766 15.9236C100.122 16.8514 99.857 17.9874 99.8759 19.1045C102.621 17.9685 105.367 16.8324 108.112 15.6775C107.658 14.6172 106.56 13.9734 105.442 13.803C103.644 13.4811 101.769 14.4468 100.766 15.9236Z" fill="#020202"/>
</svg>
