<svg width="112" height="37" viewBox="0 0 112 37" fill="none" xmlns="http://www.w3.org/2000/svg">
<path d="M42.8588 31.8795C38.7058 29.2043 33.0697 28.7348 23.9804 31.2566C14.2904 33.5337 11.0596 34.9934 6.81666 32.0631C5.18662 30.6236 4.60221 28.306 5.03859 24.9675C6.05074 19.5252 8.78599 14.2878 13.6446 8.47829C16.3564 5.45622 18.872 2.86272 22.1936 1.82127C24.7394 1.16794 24.5014 3.16866 24.1934 3.4548C23.8683 3.4548 23.3223 3.506 22.9003 3.78139C22.5578 4.04702 21.6176 4.90473 21.5671 6.05848C21.4943 7.82469 23.322 7.45708 24.1104 6.48734C24.9601 5.39455 26.216 3.3019 25.2281 1.35154C24.8141 0.657335 24.0987 0.177558 23.2104 0.0141911C20.1688 -0.159639 17.3362 1.29029 14.7217 2.89327C9.00432 6.865 4.43075 12.3684 1.84283 18.3925C0.350901 22.0271 -0.998445 27.2337 1.02404 31.4713C2.58879 34.4116 5.83701 35.9734 9.71248 35.6469C12.4306 35.3613 15.7173 34.4828 17.9278 33.9524C20.1385 33.421 31.4539 29.5314 35.1719 36.3012C35.1719 36.3012 36.4082 33.9012 39.498 33.85C42.0382 33.6156 45.7029 34.5853 48.3714 36.5453C47.4823 35.2082 44.9616 33.2376 42.8588 31.8795Z" fill="#020202"/>
<path d="M25.1335 9.16239C23.0171 7.77384 18.7634 10.4284 15.3564 14.9819C12.2409 19.0664 10.8956 23.8135 12.3597 26.0087C14.5375 28.5917 18.5806 24.8346 20.3 22.8235L20.5218 22.5885C21.691 21.3326 22.5942 19.8214 23.4687 18.3713C23.4687 18.3713 24.2723 17.044 24.3106 16.9827C24.8073 16.8911 25.4055 16.7481 26.0796 16.5541C26.07 16.5845 23.5005 20.9035 23.7626 23.0472C23.8442 23.7012 23.782 26.0903 26.1145 26.8151C29.2233 27.3361 31.7058 24.9262 33.8958 22.7821C33.8958 22.7821 34.269 22.4251 34.4801 22.2213C34.4267 22.435 34.3571 22.7203 34.3571 22.7203C33.4469 25.8855 34.6737 26.5497 35.4412 26.7947C37.7606 27.4691 40.5314 24.0995 40.5404 24.0995C40.4685 25.1609 40.2585 26.0388 41.3774 26.7435C42.4333 27.1216 43.5021 26.5451 44.3146 26.004C47.2409 23.9417 49.5983 20.7137 51.5023 17.9237H50.2878C50.2734 17.9237 47.2908 22.2468 45.354 23.1864C45.3509 23.1864 44.9984 23.3674 44.7954 23.2242C44.5438 23.0098 44.643 22.5638 44.7983 22.2479C44.8081 22.2274 52.2766 9.274 52.2766 9.274H48.7504C48.7504 9.274 48.3652 9.89719 48.3338 9.93807C48.3101 9.9177 48.2536 9.81056 48.2145 9.75922C46.0298 6.73714 41.0823 11.3856 37.3575 16.7763C35.9235 18.8492 34.0977 21.183 32.2045 22.8676C32.2045 22.8676 29.3998 25.4385 28.2016 23.5914C27.7635 22.8153 27.8983 21.6807 28.1453 20.9355C29.5406 16.9637 31.9448 13.3591 34.6807 11.1843C35.4529 10.5823 36.2925 10.4082 36.7089 10.6635C37.106 10.8987 37.17 11.4802 36.9189 11.8785C36.2817 11.8582 35.7711 12.0518 35.3562 12.4806C34.5387 13.3384 34.2547 14.1655 34.5146 14.9416C35.7773 16.7385 38.2956 13.1853 38.1738 11.0208C38.1303 10.2447 37.7163 9.50977 37.0983 9.15207C36.1774 8.601 34.7725 8.74372 33.8633 9.18304C32.6461 9.64231 30.7196 11.2451 29.595 12.491C28.1792 14.0534 25.7511 15.7889 24.9919 15.5945C25.24 14.9307 27.291 10.7345 25.1335 9.16239ZM42.1343 15.3701C42.8203 14.4207 44.8169 11.8782 45.3036 11.4495C46.9406 10.0094 47.5949 10.643 47.6516 11.092C46.1238 13.8282 44.3206 16.9628 42.6253 19.781C42.6288 19.7709 42.0947 20.5875 42.0947 20.5875C41.346 21.7306 40.5921 22.711 39.3623 23.3948C39.1869 23.4463 38.8978 23.4668 38.7055 23.3233C38.4739 23.1701 38.3825 22.9148 38.4086 22.6493C38.4824 21.7715 39.3761 19.0868 42.1343 15.3701ZM22.951 17.0138C22.951 17.0138 22.9201 17.106 22.9051 17.1361C22.9011 17.1361 21.3675 19.6373 21.3675 19.6373C20.442 20.8729 19.2864 22.4252 17.8419 23.1702C17.4138 23.3131 16.8218 23.4053 16.5202 23.0278C15.8808 22.2619 16.2104 21.1999 16.4781 20.3425L16.5729 20.0361C17.3405 17.9535 18.5583 16.1153 19.7439 14.4102C19.7587 14.4002 19.7919 14.39 19.8039 14.39C19.8068 14.4002 19.8115 14.4002 19.8135 14.4207C20.5574 15.8498 21.9522 16.5132 22.9953 16.82C23.0016 16.82 23.0084 16.8302 23.0084 16.8507C23.0086 16.8811 22.9915 16.9222 22.951 17.0138ZM24.4038 14.0634C24.397 14.0838 23.7208 15.6357 23.7208 15.6357C23.623 15.7173 23.4684 15.6766 23.2912 15.6357L22.9876 15.5843C22.0344 15.2884 21.3153 14.6553 21.0936 13.8999C20.788 12.4296 22.044 11.2758 22.5973 10.8574C23.1283 10.4896 23.9538 10.2956 24.4331 10.6736C24.7287 11.0208 24.8408 11.4699 24.8408 11.9603C24.8409 12.6236 24.6361 13.3689 24.4038 14.0634ZM68.983 18.8005C68.6429 18.0655 67.8358 17.5958 66.9756 17.6467C64.1822 17.9022 61.4499 20.1993 60.0151 23.497C59.2623 25.192 58.8515 26.5906 58.5821 28.8164C59.4508 27.8161 61.2226 26.1723 63.2332 25.2738C63.2332 25.2738 63.5068 23.14 64.9019 21.2408C65.4298 20.4544 66.4862 19.1885 67.6725 19.5252C68.709 19.8725 68.3446 22.7416 66.9671 25.5182C65.9478 27.5605 64.3881 29.6031 62.81 31.0117C61.4147 32.196 59.3504 33.6254 57.5443 32.5229C56.4067 31.8493 55.8265 30.4398 55.949 28.6226C56.4925 23.4667 58.8396 19.0763 62.1983 14.0734C65.6615 9.42788 69.4791 4.65983 74.6219 2.11711C75.6709 1.58627 76.6423 1.46378 77.482 1.79051C77.482 1.79051 72.6544 4.44512 70.3531 9.35631C69.7678 10.6021 68.9536 12.2863 69.7735 13.7771C70.2019 14.5529 70.9625 14.6143 71.5751 14.5734C74.3959 13.9198 76.2183 11.2857 77.7073 8.87639C78.5706 7.0488 79.3379 5.2314 79.3379 3.20975C79.3379 2.96477 79.3252 2.63818 79.3046 2.39292C80.6521 1.67849 83.4157 2.94427 83.4157 2.94427C85.5751 3.65926 90.1733 7.1819 91.7243 7.85545C92.4809 6.97751 93.7242 5.65035 94.4244 4.98656L93.4109 4.36365C91.7884 3.37326 90.0734 2.4338 88.3854 1.5048C84.5518 -0.588002 81.4313 0.146939 79.8432 0.718793C79.219 0.943265 78.6487 1.13732 78.6487 1.13732C77.4701 -0.149102 75.5371 -0.0268908 74.1128 0.32049C68.9908 1.79065 64.2353 5.37426 59.1369 11.5924C55.3885 16.4627 53.0635 20.6694 51.8242 24.8247C50.869 27.6221 50.5786 31.7367 52.9101 34.177C54.8924 36.2492 57.521 35.8003 59.377 35.0553C63.3987 33.0745 67.0133 28.8064 68.8143 23.8953C69.2491 22.4354 69.7313 20.373 68.983 18.8005ZM78.2308 3.41414C77.6984 9.51982 72.9524 13.1038 71.778 13.3893C71.0663 13.532 69.852 13.2157 70.9362 10.6533C72.5324 7.20199 75.2581 4.27199 78.1822 2.77099C78.2535 3.0263 78.2515 3.18925 78.2308 3.41414ZM106.384 4.18982C103.831 5.63989 101.184 6.57893 97.9808 6.25234C97.0931 7.25319 96.2286 8.28431 95.4318 9.34599C99.9281 10.4896 104.695 7.94725 107.353 5.52772C110.166 3.0874 111.608 0.0144043 111.608 0.0144043C111.608 0.0144043 109.5 2.42375 106.384 4.18982ZM58.1373 9.27428H54.7885L52.8995 12.3435H56.2477L58.1373 9.27428Z" fill="#020202"/>
<path d="M97.9682 32.1636C97.6081 32.4086 97.1022 32.2202 97.2913 31.6588C97.7625 30.2294 99.6356 27.3164 99.6356 27.3164L104.853 18.0633H101.279C101.109 18.3423 100.746 18.9829 100.746 18.9829C100.581 18.7075 100.086 18.0952 99.8828 17.9628C99.0098 17.4111 97.7289 17.6719 96.8453 18.1721C93.0033 20.4186 90.2001 24.8572 87.9893 28.3185C87.9893 28.3185 85.6621 32.1662 84.3704 32.4524C83.3618 32.5341 83.4659 31.1756 83.5096 30.859C83.8995 28.5716 84.8051 26.3971 85.7173 24.4265C87.5731 23.1401 89.6907 21.4555 91.6153 19.6075C95.792 15.615 99.3131 11.0919 99.8277 10.0812C99.8277 10.0812 99.2706 10.1936 98.6129 10.2138C95.3997 14.696 88.8242 21.2103 86.8308 22.1801C87.7139 20.0559 93.4196 9.91767 98.2748 5.068L99.0389 4.33264C100.22 3.17889 101.445 1.99459 102.398 1.80053C102.499 1.79034 102.629 1.80053 102.741 2.03574C102.784 2.93405 102.449 3.59784 102.065 4.35329L101.528 5.45612C101.528 5.45612 102.289 5.31312 102.79 5.14934C103.37 4.05739 104.013 2.83179 103.776 1.37209C103.697 0.902358 103.357 0.545071 102.912 0.463318C101.464 0.187645 99.8855 1.25936 98.6152 2.12754L98.564 2.15795C92.0347 7.27325 86.5213 14.645 81.701 24.7122C81.3516 24.9773 80.0019 25.2941 79.7725 25.1408C80.2485 24.1609 80.8479 22.8435 81.1477 21.414C81.1996 21.0054 81.2478 20.5872 81.2478 20.1788C81.2478 19.3 81.0369 18.4733 80.2498 17.9019C79.3268 17.4423 78.186 17.6569 77.4167 18.0037C73.9712 19.4331 71.396 22.9661 69.5376 25.8756C68.5382 27.7241 67.5416 29.7039 67.2657 31.9709C67.0713 33.7472 67.467 34.8909 68.477 35.4627C69.5156 35.9933 70.8228 35.4418 71.3363 35.1766C74.827 33.3387 77.2661 29.6531 79.1885 26.2836C79.265 26.2736 80.3147 26.2432 81.1087 26.0387C81.1192 26.0387 81.1237 26.0387 81.1413 26.0493C81.0958 26.2019 80.6855 27.4275 80.6855 27.4275C79.467 31.0006 78.9035 33.4309 80.0545 34.8704C81.6992 36.9022 84.4221 34.7992 86.6371 32.0216C86.1617 35.3499 87.8866 35.871 89.2016 35.6159C90.7121 35.2077 92.3953 33.5941 93.1764 32.7674C92.9256 33.7371 92.9937 35.4732 94.3678 35.6465C95.3095 35.8206 96.0145 35.3083 96.8299 34.8691C99.7553 33.2762 103.257 27.9682 104.166 26.4336H102.974C101.682 28.3872 100.037 30.948 97.9682 32.1636ZM71.7098 31.8081C71.5242 31.5323 71.4627 31.231 71.4566 30.9051C71.421 28.903 73.575 25.3178 75.0953 23.3647H75.0985C75.7355 24.7598 77.1783 25.6565 78.0493 26.0345C76.9677 28.4442 73.2577 33.605 71.7098 31.8081ZM78.6599 24.9572C78.557 25.0292 76.7376 24.4162 76.3859 22.7316C76.0876 21.2812 77.0864 20.148 78.0526 19.5768C78.4674 19.2498 79.0921 19.1379 79.5504 19.3006C79.9758 19.587 80.091 20.0979 80.091 20.6483C80.091 20.9859 80.0462 21.3327 80.0068 21.6491L79.9981 21.7208C79.6934 22.8528 79.2436 23.9406 78.6599 24.9572ZM93.2523 31.165C93.2508 31.165 92.907 31.4712 92.907 31.4712C92.4162 31.9101 91.9112 32.3797 91.3015 32.1448C91.1331 32.0837 91.0147 31.8592 90.9862 31.6851C90.9585 30.4292 91.5239 29.2655 92.0725 28.1323L92.2131 27.8361C93.7907 25.202 95.6244 22.0982 98.3175 19.9441C98.7713 19.6167 99.2638 19.3416 99.7836 19.5562C99.9032 19.6683 100.042 19.8624 100.042 20.0562C100.042 20.1177 99.9877 20.2809 99.9563 20.3319C99.2041 21.5474 98.4879 22.8234 97.7913 24.0486C96.4299 26.4684 95.0177 28.9694 93.2523 31.165Z" fill="#020202"/>
</svg>
