<svg width="66" height="46" viewBox="0 0 66 46" fill="none" xmlns="http://www.w3.org/2000/svg">
<path d="M52.9026 12.2122C49.0968 4.9602 41.4636 0 32.6627 0C23.8618 0 16.2286 4.9602 12.4229 12.2122H52.9026Z" fill="#020202"/>
<path d="M12.4014 33.1826C16.2072 40.4561 23.8512 45.4271 32.6629 45.4271C41.4746 45.4271 49.1186 40.4561 52.9243 33.1826H12.4014Z" fill="#020202"/>
<path d="M46.0911 20.228C46.0262 20.0559 45.9722 19.9268 45.9614 19.9268C45.9506 19.9268 45.8965 20.0666 45.8316 20.228L44.7721 23.0471C44.7072 23.2192 44.8045 23.3483 44.9883 23.3483H46.9344C47.1182 23.3483 47.2156 23.2085 47.1507 23.0471L46.0911 20.228Z" fill="#020202"/>
<path d="M63.6821 14.1704H1.96776C0.886575 14.1704 0 15.0527 0 16.1287V19.8192V25.8231V29.5137C0 30.5897 0.886575 31.472 1.96776 31.472H63.6821C64.7632 31.472 65.6498 30.5897 65.6498 29.5137V25.694V19.9376V16.1287C65.6498 15.0527 64.7632 14.1704 63.6821 14.1704ZM14.2825 27.3187C14.2825 27.5016 14.1311 27.6415 13.9582 27.6415H10.3254C10.1416 27.6415 9.93613 27.5124 9.86045 27.3402L6.69256 20.5509C6.61688 20.3895 6.55201 20.2604 6.55201 20.2711C6.55201 20.2819 6.5412 20.4325 6.5412 20.6154L6.49795 27.3187C6.49795 27.5016 6.34658 27.6415 6.16278 27.6415H4.42206C4.23826 27.6415 4.09771 27.4909 4.09771 27.3187V18.1407C4.09771 17.9578 4.24907 17.8179 4.42206 17.8179H8.31435C8.49815 17.8179 8.70357 17.9578 8.76845 18.1192L11.612 24.887C11.6768 25.0484 11.7417 25.0377 11.7417 24.8655V18.1515C11.7417 17.9686 11.8931 17.8287 12.0661 17.8287H13.9473C14.1311 17.8287 14.2717 17.9793 14.2717 18.1515V27.3187H14.2825ZM19.0289 27.3187C19.0289 27.5016 18.8776 27.6415 18.7046 27.6415H16.8233C16.6395 27.6415 16.499 27.4909 16.499 27.3187V18.1407C16.499 17.9578 16.6503 17.8179 16.8233 17.8179H18.7046C18.8884 17.8179 19.0289 17.9686 19.0289 18.1407V27.3187ZM30.1111 24.4674C30.1111 25.7801 29.1381 27.2649 27.8839 27.5124H24.6403H21.2346V25.3497L26.6081 25.2744C27.2784 25.2636 27.3217 24.8763 27.3108 24.6073C27.3108 24.6073 27.4406 23.7573 26.5216 23.7573H23.5375C21.7427 23.7573 20.7805 22.6383 20.7805 20.723C20.7805 18.0331 22.3266 17.7211 24.8133 17.7211C27.3 17.7211 29.1921 17.6888 29.1921 17.6888L29.1597 19.9161C27.3649 19.9161 25.808 19.9268 24.8133 19.9268C23.4402 19.9268 23.451 19.9699 23.451 20.7768C23.451 21.4977 23.5591 21.4977 24.6836 21.4977L27.8947 21.53C30.1868 21.5408 30.1111 24.4674 30.1111 24.4674ZM40.3284 24.4674C40.3284 25.7801 39.3553 27.2649 38.1011 27.5124H34.8575H31.4626V25.3497L36.8361 25.2744C37.5065 25.2636 37.5497 24.8763 37.5389 24.6073C37.5389 24.6073 37.6686 23.7573 36.7496 23.7573H33.7655C31.9708 23.7573 31.0085 22.6383 31.0085 20.723C31.0085 18.0331 32.5546 17.7211 35.0413 17.7211C37.5281 17.7211 39.4202 17.6888 39.4202 17.6888L39.3877 19.9161C37.593 19.9161 36.036 19.9268 35.0413 19.9268C33.6682 19.9268 33.6791 19.9699 33.6791 20.7768C33.6791 21.4977 33.7872 21.4977 34.9116 21.4977L38.1227 21.53C40.404 21.5408 40.3284 24.4674 40.3284 24.4674ZM51.1727 27.4156H49.2482C49.0644 27.4156 48.8589 27.2864 48.7725 27.125L48.2319 26.0168C48.1562 25.8554 47.9399 25.7263 47.7561 25.7263H44.1882C44.0044 25.7263 43.7882 25.8554 43.7125 26.0168L43.1395 27.125C43.053 27.2864 42.8475 27.4156 42.6637 27.4156H40.6852C40.5014 27.4156 40.404 27.2757 40.4689 27.1143L43.8855 17.8933C43.9503 17.7211 44.145 17.592 44.3288 17.592H47.5291C47.7129 17.592 47.9075 17.7319 47.9724 17.8933L51.3997 27.1143C51.4538 27.2757 51.3565 27.4156 51.1727 27.4156ZM62.6765 27.3187C62.6765 27.5016 62.5252 27.6415 62.3522 27.6415H58.7194C58.5356 27.6415 58.3302 27.5124 58.2545 27.3402L55.0866 20.5509C55.0109 20.3895 54.946 20.2604 54.946 20.2711C54.946 20.2819 54.9352 20.4325 54.9352 20.6154L54.892 27.3187C54.892 27.5016 54.7406 27.6415 54.5568 27.6415H52.8053C52.6215 27.6415 52.4809 27.4909 52.4809 27.3187V18.1407C52.4809 17.9578 52.6323 17.8179 52.8053 17.8179H56.6976C56.8814 17.8179 57.0868 17.9578 57.1517 18.1192L59.9952 24.887C60.0601 25.0484 60.1249 25.0377 60.1249 24.8655V18.1515C60.1249 17.9686 60.2763 17.8287 60.4493 17.8287H62.3414C62.5252 17.8287 62.6657 17.9793 62.6657 18.1515V27.3187H62.6765Z" fill="#020202"/>
</svg>
