<?xml version="1.0" encoding="utf-8"?>
<!-- Generator: Adobe Illustrator 24.3.0, SVG Export Plug-In . SVG Version: 6.00 Build 0)  -->
<svg version="1.1" id="Layer_1" xmlns="http://www.w3.org/2000/svg" xmlns:xlink="http://www.w3.org/1999/xlink" x="0px" y="0px"
	 viewBox="0 0 775.54 254" style="enable-background:new 0 0 775.54 254;" xml:space="preserve">
<style type="text/css">
	.st0{fill:#0C0F17;}
</style>
<g>
	<path class="st0" d="M345.81,134.9c1.65-1.27,1.82-3.51,2.44-5.4c7.94-24.28,15.86-48.56,23.6-72.9c1.14-3.58,2.71-4.93,6.6-4.83
		c11.44,0.29,22.89,0.1,35,0.1c-4.76,13.09-9.28,25.55-13.81,38c-13.11,36.01-26.28,72.01-39.23,108.08
		c-1.25,3.47-2.88,4.52-6.42,4.4c-7.65-0.26-15.33-0.4-22.96,0.06c-4.62,0.28-5.86-1.46-6.49-5.69
		c-4.28-29.07-8.82-58.1-13.32-87.44c-2.21,0.75-2.32,2.79-2.97,4.26c-12.3,27.95-24.62,55.9-36.69,83.96
		c-1.65,3.84-3.75,5.08-7.77,4.92c-7.81-0.31-15.65-0.34-23.46-0.04c-3.62,0.14-4.93-0.91-5.24-4.53
		c-1.33-15.9-2.89-31.78-4.39-47.66c-2.87-30.44-5.71-60.89-8.68-91.33c-0.68-7-0.88-6.98,6.3-6.97c9.49,0.01,18.99,0.32,28.45-0.11
		c4.84-0.22,5.67,1.65,5.86,5.91c1.18,26.07,2.62,52.14,3.98,78.31c1.82-0.44,1.8-1.96,2.27-3.08
		c10.94-25.47,21.92-50.92,32.71-76.46c1.42-3.36,3.04-4.92,6.89-4.73c6.64,0.34,13.31,0.25,19.96,0.05
		c3.43-0.11,4.8,0.76,5.31,4.54c3.42,25.68,7.18,51.31,10.85,76.96C344.7,133.86,344.47,134.67,345.81,134.9z"/>
	<path class="st0" d="M726.93,107.93c-2.01-18.94-9.06-35.3-24.99-46.83c-28.79-20.83-75.8-13.33-98.04,16.43
		c-19.84,26.55-22.86,56.23-11.9,86.99c7.11,19.96,22.07,32.27,42.73,37.5c11.82,2.99,23.75,3.09,35.6,0.77
		c20.38-4,36.57-14.41,47.61-32.3c1.5-2.43,2.07-4.01-1.48-5.48c-8.88-3.69-17.59-7.82-26.28-11.96c-2.69-1.28-4.37-1.32-6.04,1.56
		c-2.45,4.19-5.81,7.7-9.75,10.57c-9.63,7-20.14,8.57-31.1,3.98c-10.72-4.48-15.25-13.67-17.14-24.57
		c-0.68-3.95,0.14-5.53,4.67-5.43c14.8,0.3,29.62,0.11,44.43,0.11v-0.04c14.97,0,29.95-0.12,44.92,0.08
		c3.86,0.05,5.49-0.89,6.03-5.02C727.35,125.49,727.86,116.72,726.93,107.93z M684.34,110.3c-8.63,0.07-17.27,0.03-25.91,0.04
		c-8.47,0-16.94-0.01-25.41,0.01c-1.92,0-3.74,0.28-2.9-2.81c5.65-20.67,26.68-30.11,42.97-23.44c10.5,4.29,14.19,14.98,14.72,24.08
		C687.97,111.04,685.79,110.29,684.34,110.3z"/>
	<path class="st0" d="M474.65,146.97c4.3,4.99,7.9,9.5,12.39,13.15c10.27,8.38,21.94,12.17,35.2,10.92
		c2.86-0.27,5.58-0.99,8.05-2.43c7.04-4.11,7.8-12.61,1.62-17.95c-4.09-3.54-9.11-5.41-13.91-7.66c-5.4-2.53-10.92-4.86-16.24-7.55
		c-26.24-13.27-26.37-39.51-17.93-57.49c6.59-14.04,18.34-22.1,33.06-25.72c20.33-5,40.17-3.52,59.24,5.7
		c3.98,1.92,5.39,4.09,4.5,8.85c-1.97,10.6-3.05,21.37-4.49,32.07c-0.17,1.28-0.1,2.64-1.42,3.77c-4.56-4.82-9.15-9.62-14.8-13.2
		c-9.45-6-19.54-9.1-30.79-6.5c-4.99,1.16-8.96,3.66-9.97,9.16c-1.08,5.87,2.12,9.53,6.84,12.02c5.58,2.94,11.32,5.57,17,8.31
		c1.94,0.94,3.91,1.83,5.86,2.77c17.87,8.57,27.94,21.99,26.67,42.57c-1.27,20.63-11.81,35.04-30.88,41.78
		c-24.52,8.67-48.69,6.38-71.57-6.57c-3.24-1.83-4.53-3.87-3.86-7.92C471.3,172.69,472.81,160.22,474.65,146.97z"/>
	<path class="st0" d="M100.2,123.61c8.06,0,14.97-0.01,21.87,0c10.76,0.02,10.78,0.03,7.03,10.15c-1.61,4.33-2.17,10.27-5.31,12.46
		c-3.17,2.22-8.95,0.8-13.59,0.81c-20.28,0.04-40.56,0.02-62.07,0.02c5.11-6.09,9.56-11.48,14.1-16.8
		c8.64-10.11,17.26-20.22,26.05-30.2c1.9-2.15,1.87-3.76,0.5-6.12c-6.95-11.9-13.77-23.87-20.57-35.85
		c-1.04-1.82-2.48-3.5-2.75-6.14c1.6,0,3.06,0,4.52,0c43.92-0.02,87.85,0,131.77-0.13c3.58-0.01,4.17,0.7,2.92,4.12
		c-17.44,47.67-34.77,95.38-52.08,143.1c-0.85,2.33-1.98,3.36-4.64,3.29c-7.65-0.19-15.32-0.32-22.95,0.03
		c-4.61,0.21-4.35-1.42-3.1-4.84c13.9-38,27.69-76.04,41.5-114.07c2.1-5.79,2.1-5.78-4.02-5.78c-15.47,0-30.95-0.03-46.42-0.02
		c-5.66,0-5.65,0.02-2.69,5.12c2.67,4.59,5.13,9.32,8.06,13.74c1.82,2.75,1.44,4.6-0.64,6.91
		C112.05,109.71,106.61,116.18,100.2,123.61z"/>
	<path class="st0" d="M426.43,202.33c-5.82,0-11.65-0.13-17.47,0.05c-2.98,0.09-3.69-0.96-3.29-3.79
		c4.46-31.24,8.84-62.5,13.23-93.75c2.24-15.96,4.58-31.91,6.59-47.89c0.49-3.86,1.65-5.31,5.77-5.19
		c10.98,0.31,21.97,0.2,32.95,0.07c3.24-0.04,4.13,0.58,3.61,4.18c-6.31,44.07-12.37,88.18-18.62,132.26
		c-0.65,4.56,0.42,10.72-2.74,13.19c-2.82,2.21-8.58,0.69-13.04,0.78c-2.33,0.05-4.66,0.01-6.99,0.01
		C426.43,202.27,426.43,202.3,426.43,202.33z"/>
</g>
</svg>
