<svg width="156" height="34" viewBox="0 0 156 34" fill="none" xmlns="http://www.w3.org/2000/svg">
<path d="M155.024 14.972V12.2457H151.638V8.00731L151.524 8.0424L148.345 9.01536L148.282 9.0344V12.2458H143.263V10.4568C143.263 9.62375 143.449 8.98626 143.816 8.56112C144.181 8.14108 144.702 7.92753 145.367 7.92753C145.845 7.92753 146.34 8.04015 146.838 8.26225L146.963 8.31803V5.44685L146.905 5.42526C146.44 5.2582 145.808 5.17407 145.024 5.17407C144.037 5.17407 143.139 5.38897 142.357 5.81486C141.574 6.24135 140.958 6.8502 140.527 7.62431C140.097 8.39751 139.879 9.29054 139.879 10.2788V12.2457H137.521V14.972H139.879V26.4575H143.263V14.972H148.282V22.2708C148.282 25.2768 149.7 26.8001 152.496 26.8001C152.956 26.8001 153.439 26.7463 153.933 26.6409C154.436 26.5326 154.778 26.4245 154.98 26.309L155.024 26.2826V23.5311L154.886 23.6221C154.703 23.7445 154.474 23.8445 154.206 23.9189C153.937 23.9946 153.712 24.0326 153.537 24.0326C152.882 24.0326 152.398 23.8561 152.097 23.5077C151.793 23.1562 151.639 22.5415 151.639 21.6816V14.972H155.024ZM129.964 24.033C128.735 24.033 127.767 23.6257 127.084 22.8234C126.398 22.0171 126.05 20.8675 126.05 19.4068C126.05 17.8999 126.398 16.7204 127.085 15.8998C127.768 15.0846 128.727 14.6709 129.936 14.6709C131.109 14.6709 132.044 15.066 132.713 15.846C133.385 16.63 133.726 17.8 133.726 19.3245C133.726 20.8678 133.406 22.0532 132.773 22.8462C132.144 23.6332 131.199 24.033 129.964 24.033ZM130.114 11.9033C127.771 11.9033 125.909 12.59 124.582 13.9443C123.256 15.2988 122.583 17.1732 122.583 19.5159C122.583 21.741 123.24 23.5308 124.535 24.8347C125.829 26.1391 127.591 26.7998 129.771 26.7998C132.043 26.7998 133.867 26.1036 135.194 24.7305C136.52 23.3589 137.192 21.5023 137.192 19.2143C137.192 16.9544 136.562 15.1512 135.317 13.856C134.073 12.5602 132.322 11.9033 130.114 11.9033ZM117.127 11.9033C115.533 11.9033 114.214 12.3111 113.207 13.115C112.194 13.9238 111.679 14.9845 111.679 16.268C111.679 16.9352 111.79 17.5278 112.009 18.0305C112.228 18.5348 112.568 18.9789 113.02 19.3515C113.468 19.7212 114.16 20.1084 115.077 20.5023C115.848 20.8195 116.423 21.0878 116.788 21.2992C117.145 21.5065 117.398 21.7148 117.541 21.9177C117.68 22.1162 117.751 22.3879 117.751 22.7233C117.751 23.6781 117.036 24.1427 115.564 24.1427C115.019 24.1427 114.396 24.0287 113.714 23.804C113.037 23.5828 112.398 23.2588 111.82 22.8434L111.679 22.7426V26.0008L111.731 26.0248C112.21 26.2459 112.813 26.4323 113.525 26.5789C114.235 26.7258 114.88 26.8004 115.441 26.8004C117.171 26.8004 118.564 26.3907 119.58 25.582C120.603 24.7677 121.122 23.682 121.122 22.3541C121.122 21.3961 120.842 20.5746 120.292 19.9121C119.746 19.2549 118.798 18.6516 117.475 18.1184C116.422 17.6955 115.747 17.3444 115.468 17.0749C115.2 16.8146 115.064 16.4464 115.064 15.9802C115.064 15.5669 115.232 15.2358 115.577 14.9677C115.925 14.6982 116.41 14.5611 117.017 14.5611C117.581 14.5611 118.158 14.6502 118.732 14.8247C119.305 14.9993 119.809 15.2331 120.229 15.5191L120.367 15.6135V12.5228L120.314 12.5C119.926 12.3337 119.415 12.1914 118.794 12.0759C118.176 11.9612 117.615 11.9033 117.127 11.9033ZM102.857 24.033C101.629 24.033 100.66 23.6257 99.9779 22.8234C99.2911 22.0171 98.9438 20.8678 98.9438 19.4068C98.9438 17.8999 99.2915 16.7204 99.9787 15.8998C100.661 15.0846 101.62 14.6709 102.83 14.6709C104.003 14.6709 104.937 15.066 105.606 15.846C106.279 16.63 106.62 17.8 106.62 19.3245C106.62 20.8678 106.299 22.0532 105.666 22.8462C105.038 23.6332 104.093 24.033 102.857 24.033ZM103.008 11.9033C100.664 11.9033 98.8024 12.59 97.4759 13.9443C96.1497 15.2988 95.4768 17.1732 95.4768 19.5159C95.4768 21.7419 96.1336 23.5308 97.4284 24.8347C98.7232 26.1391 100.485 26.7998 102.665 26.7998C104.936 26.7998 106.761 26.1036 108.088 24.7305C109.414 23.3589 110.086 21.5023 110.086 19.2143C110.086 16.9544 109.455 15.1512 108.211 13.856C106.966 12.5602 105.215 11.9033 103.008 11.9033ZM90.3397 14.7069V12.2457H86.9967V26.4572H90.3397V19.1874C90.3397 17.9513 90.62 16.9358 91.173 16.1687C91.719 15.4108 92.4467 15.0267 93.335 15.0267C93.6362 15.0267 93.9742 15.0764 94.3402 15.1746C94.7025 15.2722 94.965 15.3783 95.1197 15.4898L95.2602 15.5917V12.2214L95.2061 12.1982C94.8948 12.0659 94.4543 11.9992 93.8971 11.9992C93.057 11.9992 92.3052 12.2691 91.6613 12.8006C91.0961 13.2677 90.6876 13.9082 90.3752 14.7069H90.3397ZM81.0101 11.9033C79.4764 11.9033 78.1085 12.2322 76.9449 12.8805C75.7789 13.5303 74.8772 14.4579 74.2637 15.6375C73.6529 16.8143 73.3428 18.1889 73.3428 19.7218C73.3428 21.0645 73.6435 22.2968 74.2378 23.3828C74.8324 24.4706 75.674 25.3217 76.7393 25.9119C77.8031 26.5014 79.0327 26.8003 80.394 26.8003C81.9827 26.8003 83.3391 26.4827 84.4267 25.8563L84.4706 25.8311V22.7684L84.3301 22.871C83.8375 23.2298 83.287 23.5163 82.6946 23.7226C82.1038 23.9288 81.5651 24.033 81.0927 24.033C79.781 24.033 78.7279 23.6226 77.9636 22.8134C77.1976 22.0031 76.8092 20.8654 76.8092 19.4337C76.8092 17.993 77.2142 16.826 78.0125 15.9649C78.8083 15.1064 79.8633 14.6709 81.1479 14.6709C82.2467 14.6709 83.3174 15.0429 84.3304 15.7778L84.4706 15.8796V12.6525L84.4253 12.627C84.0441 12.4137 83.5242 12.2374 82.8788 12.1038C82.236 11.9705 81.6074 11.9033 81.0101 11.9033ZM71.0404 12.2458H67.6975V26.4572H71.0404V12.2458ZM69.4031 6.19172C68.8529 6.19172 68.3731 6.37902 67.9788 6.75018C67.5829 7.12238 67.3821 7.59101 67.3821 8.14408C67.3821 8.68844 67.5805 9.14852 67.9726 9.51083C68.3623 9.87209 68.8436 10.0552 69.4033 10.0552C69.9628 10.0552 70.446 9.87209 70.8402 9.51143C71.237 9.14852 71.4383 8.68859 71.4383 8.14408C71.4383 7.61036 71.2424 7.14653 70.8566 6.76517C70.471 6.38457 69.9818 6.19172 69.4031 6.19172ZM61.0622 11.1973V26.4572H64.4739V6.62676H59.752L53.7502 21.3562L47.9258 6.62676H43.0117V26.457H46.2178V11.1958H46.3278L52.4782 26.4572H54.8977L60.9522 11.1973H61.0622Z" fill="#020202"/>
<path d="M15.7262 15.7262H0V0H15.7262V15.7262Z" fill="#020202"/>
<path d="M33.0912 15.7262H17.3652V0H33.0912V15.7262Z" fill="#020202"/>
<path d="M15.7258 33.096H0V17.3699H15.7258V33.096Z" fill="#020202"/>
<path d="M33.0912 33.096H17.3652V17.3699H33.0912V33.096Z" fill="#020202"/>
</svg>
