<?xml version="1.0" encoding="utf-8"?>
<svg version="1.1" xmlns="http://www.w3.org/2000/svg" xmlns:xlink="http://www.w3.org/1999/xlink"
	 viewBox="197 172 534 113" xml:space="preserve">
<g>
	<path fill="#78A431" d="M244.16,183.49c-3.99-0.8-8.05-0.8-11.97,0c-14.29,2.9-23.58,14.22-23.58,28.87v45.92
		c0,1.89,0.22,3.19,0.8,4.28l0.07,0.07c0.65,1.23,1.89,2.18,3.26,2.54c1.45,0.36,2.97,0.07,4.21-0.8c2.39-1.6,2.68-4.35,2.68-6.31
		v-18.5h37.14v18.64c0,2.25,0.65,3.55,1.02,4.35c0.65,1.23,1.89,2.18,3.26,2.54c0.36,0.07,0.8,0.15,1.23,0.15
		c1.09,0,2.1-0.29,2.97-0.94c2.18-1.45,2.47-3.85,2.47-6.31v-45.7C267.67,197.64,258.46,186.39,244.16,183.49z M256.71,212.44v16.83
		h-37v-16.83c0-7.25,2.54-12.33,8.13-15.96c3.92-2.76,9.07-3.77,14.15-2.83c2.47,0.44,4.64,1.38,6.53,2.76l0.07,0.07
		C254.1,200.18,256.71,205.25,256.71,212.44L256.71,212.44z M377.58,240.22c-0.58-1.23-1.74-2.18-3.05-2.61
		c-1.38-0.44-2.83-0.22-4.14,0.44c-2.54,1.23-3.05,3.99-3.19,4.93l-0.44,2.32l-0.07,0.73c-1.67,7.18-7.47,11.1-14.87,10.01
		c-4.79-0.73-11.17-3.26-11.17-16.47v-0.87h14.51c1.74,0,7.04,0,7.04-5.22c0-2.61-1.96-4.79-4.28-4.93
		c-1.09-0.15-2.03-0.15-3.12-0.15h-14.15v-20.1c0-1.89-0.22-3.19-0.8-4.28v-0.07c-0.65-1.23-1.89-2.18-3.26-2.54
		c-1.45-0.36-2.97-0.07-4.21,0.8c-2.18,1.45-2.47,3.85-2.47,6.31v29.96c0,17.05,6.17,25.61,20.02,27.86
		c1.6,0.29,3.19,0.44,4.79,0.44c10.88,0,20.02-6.75,22.92-17.48c0.22-0.87,0.36-1.67,0.51-2.47v-0.07
		C378.59,243.63,378.45,241.89,377.58,240.22L377.58,240.22z M448.46,225.93c-4.64-17.34-22.34-27.35-40.34-22.85
		c-9.21,2.32-16.69,7.91-21.04,15.74s-5.15,17.19-2.25,26.33c4.35,13.42,16.76,21.84,30.91,21.84c2.54,0,5.22-0.29,7.84-0.87
		c3.99-0.87,7.91-2.54,11.39-4.79c2.61-1.74,4.79-3.63,5.95-5.08c1.81-2.18,2.9-3.92,2.68-5.95c-0.15-1.38-0.87-2.61-1.96-3.48
		c-1.16-0.87-2.68-1.23-4.06-0.94l-0.22,0.07c-1.38,0.44-2.47,1.02-3.34,1.89l-0.94,1.16l-1.38,1.23l-0.07,0.07
		c-3.05,3.05-6.75,5.15-10.74,5.95c-10.81,2.47-21.47-3.26-25.39-13.57c-0.29-0.87-0.51-1.67-0.73-2.39h47.45l1.02-0.15l1.6-0.07
		c1.74-0.15,3.05-0.8,3.92-2.03C450.34,235.8,450.27,232.46,448.46,225.93L448.46,225.93z M395.35,227.74
		c3.7-11.75,15.53-18.06,27.42-14.58c7.47,2.18,13.28,8.27,15.16,15.89c0.15,0.58,0.29,1.16,0.36,1.74l-43.67-0.36
		C394.77,229.49,395.06,228.69,395.35,227.74L395.35,227.74z M504.39,221.22c-0.22-0.94-0.51-1.74-0.73-2.47l-0.22-0.65
		c-3.77-10.45-12.48-16.61-23.22-16.54c-1.89,0-3.48,0.15-5.15,0.51c-8.56,1.89-18.72,8.05-18.72,26.7v29.45
		c0,2.1,0.51,3.34,1.02,4.35c0.65,1.23,1.89,2.18,3.26,2.54c0.36,0.07,0.8,0.15,1.23,0.15c1.09,0,2.1-0.29,2.97-0.94
		c2.25-1.52,2.25-4.14,2.25-6.31v-29.24c0-9.87,3.12-14.65,10.37-16.11c4.86-1.09,9.65,0.51,12.62,4.06
		c1.45,1.74,2.32,3.41,2.68,4.86c1.09,5.22,1.67,6.82,2.39,7.84l0.22,0.29c1.6,1.81,4.43,2.32,6.75,1.16
		C505.48,229.05,505.12,224.77,504.39,221.22L504.39,221.22z"/>
	<path fill="#675041" d="M567.51,192.85c-5.37-6.46-13.42-10.16-22.13-10.01c-16.32,0.22-27.35,12.04-27.35,29.45v45.92
		c0,2.1,0.51,3.34,1.02,4.35c0.65,1.23,1.89,2.18,3.26,2.54c0.36,0.07,0.8,0.15,1.23,0.15c1.09,0,2.1-0.29,2.97-0.94
		c2.25-1.52,2.54-4.06,2.54-6.31v-20.82h15.89c15.02,0,25.25-7.84,28.08-21.47C574.69,207.5,572.73,199.23,567.51,192.85
		L567.51,192.85z M562.43,210.26c-0.22,9.79-7.4,16.54-17.56,16.54h-0.22l-15.45-0.22v-15.23c0-6.82,1.02-10.01,4.28-13.35
		c3.19-3.34,7.4-4.93,12.41-4.86C555.68,193.36,562.5,200.39,562.43,210.26z M641.94,231.15c-0.15-2.61-0.51-4.93-1.16-7.04
		c-2.25-7.84-7.54-14.36-14.87-18.43c-7.84-4.28-17.05-5.22-25.9-2.61c-11.54,3.41-20.24,12.7-22.63,24.38
		c-3.55,17.56,6.31,33.95,22.92,38.23c3.05,0.8,6.17,1.16,9.21,1.16c4.64,0,9.14-0.94,13.2-2.76c3.34-1.52,6.31-3.55,8.63-6.02v0.15
		c0,1.96,0,3.12,0.58,4.28l0.07,0.07c0.65,1.23,1.89,2.18,3.26,2.54c1.45,0.36,2.97,0.07,4.21-0.8c2.25-1.52,2.61-4.06,2.61-6.31
		v-25.61L641.94,231.15L641.94,231.15z M614.66,255.89c-11.97,2.76-23.07-3.77-26.26-15.53v-0.07c-0.51-1.52-0.73-3.05-0.87-4.57
		c-0.65-10.37,5.59-19.73,15.23-22.71c2.32-0.73,4.72-1.09,7.04-1.09c4.5,0,8.78,1.31,12.48,3.92c5.59,3.92,8.92,10.3,9.14,17.48
		C631.86,244.43,625.18,253.5,614.66,255.89z M699.54,206.05l-2.25,1.09L699.54,206.05l-0.07-0.15c-0.65-1.23-1.89-2.18-3.26-2.54
		c-1.45-0.36-2.97-0.07-4.21,0.8c-2.18,1.45-2.39,3.92-2.39,6.31v29.24c0,5.73-1.74,10.37-4.86,13.13
		c-2.76,2.39-6.46,3.34-10.74,2.76c-7.4-1.02-11.46-6.31-11.46-14.94v-30.32c0-1.81-0.15-3.12-0.73-4.35
		c-0.65-1.23-1.89-2.18-3.26-2.54c-1.45-0.36-2.97-0.07-4.21,0.8c-2.25,1.52-2.61,4.06-2.61,6.31v30.32
		c0,12.12,5.51,20.68,15.6,24.16c7.76,2.68,16.25,1.38,22.13-2.97v0.22c-0.94,6.38-4.21,10.23-10.01,11.75
		c-3.12,0.87-6.31,0.65-8.78-0.58c-2.03-1.02-3.48-2.18-4.35-3.41l-1.6-2.03l-1.02-1.16c-0.65-0.87-1.16-1.31-1.45-1.52l-0.29-0.29
		l-0.29-0.15c-1.45-0.87-3.26-0.94-4.79-0.22c-1.6,0.73-2.76,2.18-3.05,3.85c-0.36,2.32,0.58,4.28,2.25,6.82l0.07,0.07
		c1.23,1.74,2.9,3.48,4.72,4.93c3.92,3.12,9.07,4.72,14.51,4.72c2.32,0,4.64-0.29,6.96-0.87c11.68-2.97,18.14-12.33,18.14-26.33
		v-47.52C700.56,208.08,699.91,206.85,699.54,206.05z"/>
	<path fill="#78A431" d="M323.46,221.22c-0.22-0.94-0.44-1.74-0.73-2.47l-0.22-0.65c-3.77-10.45-12.48-16.61-23.22-16.54
		c-1.96,0-3.48,0.15-5.15,0.51c-8.56,1.89-18.72,8.05-18.72,26.7v29.45c0,2.25,0.65,3.55,1.02,4.28v0.07
		c0.65,1.23,1.89,2.18,3.26,2.54c0.36,0.07,0.8,0.15,1.23,0.15c1.09,0,2.1-0.29,2.97-0.94c2.18-1.45,2.47-3.92,2.47-6.31v-6.96
		l-0.22-12.26h15.45c5.08,0,6.31-2.61,6.46-4.86c0.07-1.89-0.65-3.05-1.23-3.7c-1.09-1.16-2.83-1.74-5.22-1.74H286.1
		c0.07-9.58,3.19-14.29,10.37-15.82c4.86-1.09,9.65,0.51,12.62,4.06c1.45,1.81,2.32,3.41,2.68,4.86c1.09,5.22,1.67,6.82,2.39,7.84
		l0.22,0.29c1.6,1.81,4.43,2.32,6.75,1.16C324.55,229.05,324.18,224.77,323.46,221.22L323.46,221.22z"/>
	<path fill="#675041" d="M718.84,199.02c-1.6,1.6-3.48,2.39-5.66,2.39c-2.25,0-4.14-0.8-5.66-2.39c-1.52-1.6-2.32-3.48-2.32-5.66
		c0-2.18,0.8-4.06,2.32-5.66c1.6-1.6,3.48-2.32,5.66-2.32c2.25,0,4.14,0.8,5.66,2.32c1.6,1.52,2.32,3.41,2.32,5.66
		C721.16,195.53,720.36,197.42,718.84,199.02 M708.25,188.42c-1.31,1.38-2.03,2.97-2.03,4.86s0.65,3.55,2.03,4.93
		c1.38,1.38,2.97,2.03,4.86,2.03s3.55-0.65,4.86-2.03s2.03-2.97,2.03-4.93c0-1.89-0.65-3.55-2.03-4.86
		c-1.38-1.38-2.97-2.03-4.86-2.03C711.22,186.39,709.63,187.12,708.25,188.42 M712.97,188.86c1.09,0,1.89,0.07,2.39,0.29
		c0.87,0.36,1.38,1.09,1.38,2.25c0,0.8-0.29,1.38-0.87,1.74c-0.29,0.22-0.73,0.36-1.31,0.44c0.65,0.15,1.16,0.44,1.52,0.87
		c0.29,0.44,0.51,0.94,0.51,1.38v1.31c0,0.22,0,0.36,0.07,0.44l0.07,0.07h-1.45v-0.07v-1.09c0-1.02-0.29-1.67-0.8-2.03
		c-0.36-0.22-0.87-0.29-1.74-0.29h-1.23v3.48h-1.6v-8.78C709.92,188.86,712.97,188.86,712.97,188.86z M714.63,190.31
		c-0.36-0.22-1.02-0.36-1.89-0.36h-1.31v3.19h1.38c0.65,0,1.16-0.07,1.45-0.22c0.58-0.22,0.94-0.73,0.94-1.38
		C715.21,190.96,715.07,190.53,714.63,190.31"/>
</g>
</svg>
