<?xml version="1.0" encoding="utf-8"?>
<svg version="1.1" xmlns="http://www.w3.org/2000/svg" xmlns:xlink="http://www.w3.org/1999/xlink"
	 viewBox="355 194 385 165" xml:space="preserve">
<path fill="#010101" d="M450.06,278.36c0.23,20.38,18.5,27.15,18.65,27.23c-0.15,0.45-2.93,9.7-9.63,19.18
		c-5.79,8.2-11.81,16.4-21.29,16.55c-9.33,0.15-12.34-5.34-22.94-5.34c-10.68,0-13.99,5.19-22.79,5.49
		c-9.18,0.3-16.1-8.88-21.96-17.07c-11.96-16.7-21.06-47.23-8.8-67.84c6.09-10.23,17-16.7,28.81-16.92
		c8.95-0.15,17.45,5.87,22.94,5.87s15.8-7.22,26.63-6.17c4.51,0.15,17.3,1.81,25.42,13.39
		C464.43,253.09,449.91,261.29,450.06,278.36 M432.54,228.27c4.89-5.72,8.12-13.61,7.22-21.51c-6.99,0.3-15.49,4.51-20.46,10.23
		c-4.51,5.04-8.42,13.09-7.37,20.83C419.75,238.42,427.73,233.98,432.54,228.27 M502.9,218.5c3.58-0.59,7.61-1.12,11.95-1.64
		c4.34-0.52,9.13-0.74,14.31-0.74c7.46,0,13.85,0.89,19.25,2.6c5.4,1.78,9.82,4.24,13.32,7.58c2.97,2.9,5.33,6.39,7,10.33
		c1.67,4.01,2.51,8.62,2.51,13.83c0,6.32-1.14,11.82-3.42,16.58s-5.4,8.7-9.36,11.89c-3.96,3.2-8.68,5.58-14.16,7.21
		c-5.48,1.56-11.42,2.38-17.88,2.38c-5.86,0-10.73-0.45-14.69-1.26v52.33h-8.75V218.5L502.9,218.5z M511.65,279.61
		c2.13,0.59,4.49,1.04,7.08,1.26c2.59,0.22,5.4,0.37,8.37,0.37c11.19,0,19.79-2.53,25.95-7.66c6.16-5.05,9.21-12.56,9.21-22.38
		c0-4.76-0.84-8.85-2.43-12.34c-1.6-3.49-3.88-6.39-6.85-8.62c-2.97-2.23-6.55-3.94-10.58-5.06c-4.11-1.12-8.6-1.71-13.62-1.71
		c-3.96,0-7.38,0.15-10.27,0.45s-5.17,0.67-6.85,0.97L511.65,279.61z M640.8,318.86c0,3.49,0.08,7.06,0.15,10.56
		c0.15,3.49,0.53,6.91,1.14,10.18h-8.22l-1.29-12.34h-0.38c-1.14,1.71-2.51,3.42-4.26,5.05c-1.81,1.78-3.83,3.32-6.01,4.61
		c-2.28,1.41-4.87,2.53-7.84,3.34c-2.89,0.82-6.09,1.26-9.59,1.26c-4.34,0-8.14-0.67-11.42-2.08c-3.27-1.41-6.01-3.2-8.07-5.43
		c-2.13-2.23-3.73-4.83-4.72-7.73c-1.07-2.9-1.6-5.8-1.6-8.7c0-10.33,4.41-18.21,13.32-23.79c8.9-5.57,22.22-8.25,40.11-8.03v-2.38
		c0-2.3-0.23-4.91-0.68-7.88s-1.37-5.8-2.89-8.47s-3.73-4.91-6.7-6.69s-7-2.75-12.1-2.75c-3.88,0-7.69,0.59-11.42,1.71
		c-3.68,1.07-7.17,2.7-10.35,4.83l-2.82-6.39c3.96-2.68,8.07-4.53,12.25-5.72c4.18-1.12,8.6-1.71,13.24-1.71
		c6.24,0,11.26,1.04,15.14,3.12c3.88,2.08,7,4.76,9.21,8.03c2.21,3.27,3.73,6.91,4.57,11c0.84,4.09,1.22,8.1,1.22,12.12V318.86z
		 M632.05,292.91c-4.72-0.15-9.67,0.07-14.76,0.52c-5.17,0.52-9.89,1.56-14.23,3.2s-7.91,4.01-10.81,7.21
		c-2.82,3.12-4.26,7.36-4.26,12.56c0,6.17,1.83,10.7,5.4,13.6c3.58,2.9,7.61,4.39,12.1,4.39c3.58,0,6.85-0.52,9.67-1.49
		c2.82-0.97,5.33-2.3,7.46-3.94s3.88-3.49,5.33-5.57c1.45-2.08,2.51-4.16,3.27-6.39c0.61-2.45,0.91-4.16,0.91-5.28L632.05,292.91z
		 M657.85,252.32l22.68,56.72c1.22,3.12,2.43,6.39,3.58,9.74c1.14,3.35,2.13,6.39,2.97,9.22h0.38c0.84-2.68,1.83-5.65,2.97-8.99
		c1.14-3.35,2.36-6.76,3.73-10.26l21.23-56.35h9.28l-25.87,64c-2.59,6.76-5.1,12.94-7.38,18.44c-2.28,5.5-4.64,10.48-7,14.94
		c-2.36,4.46-4.72,8.33-7.15,11.75s-5.1,6.39-8.07,8.92c-3.5,3.05-6.7,5.28-9.59,6.62c-2.89,1.41-4.87,2.3-5.86,2.6l-2.97-7.06
		c2.21-0.97,4.72-2.23,7.46-3.79c2.74-1.56,5.4-3.64,7.99-6.17c2.21-2.16,4.72-5.05,7.38-8.62s5.02-7.88,7.15-13.01
		c0.76-1.93,1.14-3.2,1.14-3.79c0-0.82-0.38-2.16-1.14-3.79l-32.19-80.88h9.28L657.85,252.32z"/>
</svg>
