<?xml version="1.0" encoding="utf-8"?>
<!-- Generator: Adobe Illustrator 28.0.0, SVG Export Plug-In . SVG Version: 6.00 Build 0)  -->
<svg version="1.1" id="Layer_1" xmlns="http://www.w3.org/2000/svg" xmlns:xlink="http://www.w3.org/1999/xlink" x="0px" y="0px"
	 viewBox="172 115 571 119" style="enable-background:new 0 0 929.78 467.65;" xml:space="preserve">

<g>
	<g>
		<g>
			<path fill-rule="evenodd" clip-rule="evenodd" fill="#0077A6" d="M622.2,232.76h-0.35c0-0.18-0.09-0.44-0.09-0.53c0-0.09,0-0.27-0.27-0.27h-0.53v0.8h-0.27v-1.86h0.8
				c0.36,0,0.62,0.09,0.62,0.44c0,0.27-0.09,0.36-0.18,0.44c0.09,0.09,0.18,0.18,0.18,0.36v0.35c0,0.09,0,0.09,0.09,0.09V232.76
				L622.2,232.76z M621.85,231.43c0-0.27-0.18-0.27-0.27-0.27h-0.62v0.53h0.53C621.67,231.7,621.85,231.61,621.85,231.43z
				 M623.36,231.78c0-1.06-0.89-1.95-2.04-1.95c-1.06,0-1.95,0.89-1.95,1.95c0,1.15,0.89,2.04,1.95,2.04
				C622.47,233.83,623.36,232.94,623.36,231.78z M623.09,231.78c0,0.98-0.8,1.69-1.78,1.69s-1.69-0.71-1.69-1.69
				c0-0.89,0.71-1.69,1.69-1.69C622.29,230.1,623.09,230.9,623.09,231.78z M732.45,195.92c0,2.66-1.69,3.9-4.71,3.9h-5.77v-2.66
				h5.77c0.53,0,0.98-0.09,1.16-0.27c0.18-0.18,0.35-0.44,0.35-0.8c0-0.36-0.18-0.71-0.35-0.89c-0.18-0.18-0.53-0.27-1.07-0.27
				c-2.75-0.09-6.21,0.09-6.21-3.82c0-1.78,1.15-3.73,4.26-3.73h5.95v2.66h-5.5c-0.53,0-0.89,0-1.15,0.18
				c-0.27,0.27-0.44,0.53-0.44,0.98s0.27,0.71,0.62,0.89c0.36,0.09,0.71,0.18,1.16,0.18h1.6c1.69,0,2.75,0.35,3.46,0.98
				C732.1,193.88,732.45,194.68,732.45,195.92z M719.94,193.26c-0.71-0.62-1.78-0.98-3.46-0.98h-1.6c-0.44,0-0.8-0.09-1.15-0.18
				c-0.36-0.18-0.62-0.44-0.62-0.89s0.09-0.71,0.44-0.98c0.27-0.18,0.62-0.18,1.15-0.18h5.5v-2.66h-5.95c-3.2,0-4.26,1.95-4.26,3.73
				c0,3.9,3.46,3.73,6.21,3.82c0.53,0,0.89,0.09,1.06,0.27c0.18,0.18,0.36,0.53,0.36,0.89c0,0.35-0.18,0.62-0.36,0.8
				c-0.27,0.18-0.62,0.27-1.15,0.27h-5.77v2.66h5.77c3.02,0,4.7-1.24,4.7-3.9C720.83,194.68,720.47,193.88,719.94,193.26
				L719.94,193.26z M708.58,197.25h-7.01v-2.49h6.83v-2.48h-6.83v-2.31h7.01v-2.57h-9.94v12.43h9.94V197.25L708.58,197.25z
				 M695.44,188.02c-0.98-0.53-2.13-0.62-3.64-0.62h-6.83v12.43h3.02v-4.53h3.2c1.06,0,1.69,0.09,2.13,0.53
				c0.53,0.62,0.53,1.69,0.53,2.49v1.51h2.93v-2.4c0-1.15-0.09-1.69-0.44-2.31c-0.27-0.36-0.8-0.8-1.51-1.07
				c0.8-0.27,2.13-1.33,2.13-3.28C696.95,189.35,696.41,188.55,695.44,188.02z M678.57,187.4h-9.5l-3.82,4.08l-3.64-4.08h-11.98
				v12.43h11.81l3.82-4.08l3.64,4.08h5.77v-4.17h3.73c2.57,0,5.15-0.71,5.15-4.17C683.54,188.11,680.88,187.4,678.57,187.4
				L678.57,187.4z M693.04,192.55c-0.44,0.18-0.89,0.18-1.42,0.18l-3.64,0.09v-2.84h3.64c0.53,0,1.07,0,1.42,0.27
				c0.36,0.18,0.62,0.53,0.62,1.07C693.66,191.84,693.4,192.28,693.04,192.55z M678.57,193.17h-3.91v-3.2h3.91
				c1.07,0,1.78,0.44,1.78,1.51C680.35,192.55,679.64,193.17,678.57,193.17z M667.12,193.61l4.62-4.88v10.03L667.12,193.61z
				 M659.93,197.25h-7.37v-2.49h6.57v-2.48h-6.57v-2.31h7.46l3.28,3.64L659.93,197.25L659.93,197.25z M724.2,178.43h-4.26
				l-5.59-9.32v9.32h-6.04l-1.16-2.75h-6.21l-1.15,2.75h-3.46c-1.42,0-3.28-0.36-4.35-1.42c-0.98-1.06-1.51-2.49-1.51-4.7
				c0-1.86,0.27-3.55,1.6-4.88c0.89-0.98,2.49-1.42,4.53-1.42h2.84v2.66h-2.84c-1.06,0-1.69,0.18-2.31,0.71
				c-0.53,0.53-0.8,1.51-0.8,2.84s0.27,2.31,0.8,2.93c0.44,0.44,1.24,0.62,2.04,0.62h1.33l4.26-9.76h4.44l4.97,11.72v-11.72h4.62
				l5.24,8.61v-8.61h3.02L724.2,178.43L724.2,178.43L724.2,178.43z M688.96,166.01h-3.02v12.43h3.02V166.01L688.96,166.01z
				 M682.65,166.54c-0.98-0.53-2.04-0.53-3.55-0.53h-6.84v12.43h2.93v-4.53h3.2c1.07,0,1.78,0.09,2.22,0.53
				c0.53,0.62,0.44,1.69,0.44,2.4v1.6h3.02v-2.49c0-1.06-0.09-1.6-0.53-2.22c-0.27-0.36-0.8-0.8-1.42-1.06
				c0.8-0.36,2.13-1.33,2.13-3.28C684.25,167.96,683.63,167.16,682.65,166.54L682.65,166.54z M670.14,175.86h-6.92v-2.49h6.84v-2.57
				h-6.84v-2.22h6.92v-2.57h-9.94v12.43h9.94V175.86L670.14,175.86z M657.98,166.01h-4.88l-3.64,8.43l-3.91-8.43h-4.79v11.72
				l-5.06-11.72h-4.44l-5.33,12.43h3.2l1.15-2.75h6.21l1.15,2.75h6.04v-9.76l4.35,9.76h2.57l4.35-9.76v9.76h3.02L657.98,166.01
				L657.98,166.01L657.98,166.01z M706.09,173.02l-2.04-4.88l-2.04,4.88H706.09z M680.35,171.07c-0.44,0.27-0.89,0.27-1.51,0.27
				h-3.64v-2.75h3.64c0.53,0,1.15,0,1.51,0.18c0.35,0.27,0.53,0.62,0.53,1.15C680.88,170.45,680.7,170.89,680.35,171.07z
				 M631.35,173.02l2.04-4.88l2.04,4.88H631.35z M731.74,127.04h-105.9v44.74l3.64-8.26h7.72l1.07,2.04v-2.04h9.05l2.04,4.44
				l1.95-4.44h28.85c1.33,0,2.48,0.27,3.37,0.98v-0.98h7.9v0.98c1.33-0.71,3.02-0.98,4.97-0.98h11.45l1.07,2.04v-2.04h8.43
				l1.24,2.04v-2.04h8.25v17.4h-8.34l-1.6-2.66v2.66h-10.39l-1.15-2.84h-2.58l-1.15,2.84h-5.41c-2.13,0-3.73-0.53-4.79-1.06v1.06
				h-12.87v-3.99c0-0.53-0.09-0.62-0.44-0.62h-0.44v4.62h-24.86v-2.22l-0.89,2.22h-5.24l-0.89-2.13v2.13h-10.03l-1.06-2.84h-2.57
				l-1.15,2.84h-5.15v52.46h105.9v-31.87c-1.15,0.53-2.75,0.8-4.35,0.8h-7.72v-1.07c-0.89,0.71-2.49,1.07-3.99,1.07h-24.32v-3.99
				c0-0.53-0.09-0.53-0.53-0.53h-0.44v4.53h-7.99v-4.7c-1.33,0.62-2.84,0.62-4.17,0.62h-0.89v4.08h-9.76l-2.31-2.66l-2.57,2.66
				h-15.71v-17.4h15.98l2.31,2.66l2.49-2.66h10.74c1.24,0,3.28,0.18,4.17,1.06v-1.06h9.59c0.98,0,2.84,0.18,4.08,1.06v-1.06h14.47
				v1.06c0.8-0.71,2.31-1.06,3.64-1.06h8.08v1.06c0.89-0.62,2.13-1.06,3.73-1.06h5.5V127.04L731.74,127.04z"/>
		</g>
		<g>
			<path fill="#F79F1A" d="M566.69,180.43c0,23.22-18.78,42.02-41.94,42.02c-23.16,0-41.94-18.81-41.94-42.02s18.75-42.02,41.91-42.02
				S566.69,157.22,566.69,180.43L566.69,180.43z"/>
			<path fill="#EA001B" d="M514.91,180.43c0,23.22-18.78,42.02-41.94,42.02c-23.16,0-41.94-18.81-41.94-42.02s18.78-42.02,41.94-42.02
				S514.91,157.22,514.91,180.43L514.91,180.43z"/>
			<path fill="#FF5F01" d="M498.85,147.34c-9.78,7.68-16.06,19.65-16.06,33.09s6.28,25.41,16.06,33.09
				c9.78-7.68,16.06-19.65,16.06-33.09S508.64,155.05,498.85,147.34L498.85,147.34z"/>
		</g>
		<path fill="#1434CB" d="M320.47,147.01c-14.65,0-27.74,7.59-27.74,21.62c0,16.09,23.22,17.2,23.22,25.28c0,3.4-3.9,6.45-10.56,6.45
			c-9.45,0-16.52-4.26-16.52-4.26l-3.02,14.15c0,0,8.14,3.6,18.94,3.6c16.01,0,28.62-7.97,28.62-22.23c0-17-23.31-18.08-23.31-25.58
			c0-2.67,3.2-5.59,9.84-5.59c7.49,0,13.61,3.1,13.61,3.1l2.96-13.67C336.5,149.88,329.85,147.01,320.47,147.01z M186.46,148.04
			l-0.35,2.06c0,0,6.16,1.13,11.71,3.38c7.15,2.58,7.66,4.08,8.86,8.75l13.11,50.56h17.58l27.08-64.74h-17.54l-17.4,44.02
			l-7.1-37.31c-0.65-4.27-3.95-6.71-7.99-6.71C214.42,148.04,186.46,148.04,186.46,148.04z M271.51,148.04l-13.76,64.74h16.73
			l13.71-64.74L271.51,148.04L271.51,148.04z M364.8,148.04c-4.03,0-6.17,2.16-7.74,5.93l-24.51,58.81h17.54l3.39-9.8h21.37
			l2.06,9.8h15.48l-13.5-64.74H364.8z M367.08,165.54l5.2,24.3h-13.93L367.08,165.54z"/>
	</g>
	<g>
		<path d="M858.91,440.2H70.87c-19.33,0-35.06-15.73-35.06-35.06V62.52c0-19.33,15.73-35.06,35.06-35.06h788.05
			c19.33,0,35.06,15.73,35.06,35.06v342.61C893.98,424.47,878.25,440.2,858.91,440.2z M70.87,30.26
			c-17.79,0-32.26,14.47-32.26,32.26v342.61c0,17.79,14.47,32.26,32.26,32.26h788.05c17.79,0,32.26-14.47,32.26-32.26V62.52
			c0-17.79-14.47-32.26-32.26-32.26H70.87z"/>
	</g>
	<g>
		<path d="M169.46,340.47c-3.59,0-6.92-0.6-10-1.78c-3.07-1.19-5.75-2.87-8.01-5.05c-2.27-2.18-4.03-4.75-5.28-7.71
			c-1.26-2.96-1.88-6.19-1.88-9.69c0-3.5,0.63-6.73,1.88-9.69c1.26-2.96,3.03-5.53,5.32-7.71c2.29-2.18,4.96-3.86,8.01-5.05
			c3.05-1.19,6.39-1.78,10.03-1.78c3.86,0,7.38,0.66,10.57,1.99c3.19,1.32,5.88,3.29,8.08,5.89l-5.66,5.32
			c-1.71-1.84-3.61-3.22-5.72-4.14c-2.11-0.92-4.4-1.38-6.87-1.38s-4.72,0.4-6.77,1.21c-2.04,0.81-3.81,1.95-5.32,3.43
			c-1.5,1.48-2.67,3.23-3.5,5.25c-0.83,2.02-1.25,4.24-1.25,6.66c0,2.42,0.42,4.65,1.25,6.66c0.83,2.02,2,3.77,3.5,5.25
			c1.5,1.48,3.28,2.63,5.32,3.43c2.04,0.81,4.3,1.21,6.77,1.21s4.76-0.46,6.87-1.38c2.11-0.92,4.02-2.32,5.72-4.21l5.66,5.39
			c-2.2,2.56-4.89,4.51-8.08,5.86C176.91,339.8,173.37,340.47,169.46,340.47z"/>
		<path d="M195.18,339.8v-35.95h8.01v9.9l-0.94-2.9c1.08-2.42,2.77-4.26,5.08-5.52c2.31-1.26,5.19-1.88,8.65-1.88v8.01
			c-0.36-0.09-0.7-0.15-1.01-0.17c-0.32-0.02-0.63-0.03-0.94-0.03c-3.19,0-5.72,0.93-7.61,2.79c-1.88,1.86-2.83,4.63-2.83,8.31
			v17.44H195.18z"/>
		<path d="M239.68,340.27c-4,0-7.48-0.8-10.47-2.39c-2.98-1.59-5.3-3.78-6.93-6.56c-1.64-2.78-2.46-5.95-2.46-9.49
			c0-3.59,0.8-6.77,2.39-9.53c1.59-2.76,3.79-4.93,6.6-6.5c2.81-1.57,6-2.36,9.59-2.36c3.5,0,6.62,0.76,9.36,2.29
			c2.74,1.53,4.89,3.68,6.46,6.46c1.57,2.78,2.36,6.06,2.36,9.83c0,0.36-0.01,0.76-0.03,1.21c-0.02,0.45-0.06,0.88-0.1,1.28h-29.96
			v-5.59H252l-3.3,1.75c0.05-2.06-0.38-3.88-1.28-5.45c-0.9-1.57-2.12-2.8-3.67-3.7c-1.55-0.9-3.33-1.35-5.35-1.35
			c-2.06,0-3.87,0.45-5.42,1.35c-1.55,0.9-2.76,2.14-3.64,3.74c-0.88,1.59-1.31,3.47-1.31,5.62v1.35c0,2.15,0.49,4.06,1.48,5.72
			c0.99,1.66,2.38,2.94,4.17,3.84c1.79,0.9,3.86,1.35,6.19,1.35c2.02,0,3.84-0.31,5.45-0.94c1.61-0.63,3.05-1.62,4.31-2.96
			l4.51,5.18c-1.62,1.88-3.65,3.33-6.09,4.34S242.82,340.27,239.68,340.27z"/>
		<path d="M279.87,340.27c-3.46,0-6.56-0.77-9.32-2.32c-2.76-1.55-4.93-3.69-6.5-6.43c-1.57-2.74-2.36-5.97-2.36-9.69
			s0.78-6.96,2.36-9.69c1.57-2.74,3.74-4.87,6.5-6.39s5.87-2.29,9.32-2.29c3.01,0,5.7,0.66,8.08,1.99c2.38,1.32,4.26,3.33,5.66,6.03
			c1.39,2.69,2.09,6.15,2.09,10.37c0,4.17-0.67,7.62-2.02,10.33c-1.35,2.72-3.21,4.75-5.59,6.09
			C285.7,339.6,282.96,340.27,279.87,340.27z M280.88,333.06c2.02,0,3.83-0.45,5.42-1.35c1.59-0.9,2.87-2.2,3.84-3.9
			c0.96-1.71,1.45-3.7,1.45-5.99c0-2.33-0.48-4.34-1.45-6.03c-0.97-1.68-2.24-2.97-3.84-3.87c-1.59-0.9-3.4-1.35-5.42-1.35
			c-2.02,0-3.83,0.45-5.42,1.35c-1.59,0.9-2.87,2.19-3.84,3.87c-0.97,1.68-1.45,3.69-1.45,6.03c0,2.29,0.48,4.29,1.45,5.99
			c0.97,1.71,2.24,3.01,3.84,3.9C277.05,332.62,278.86,333.06,280.88,333.06z M291.78,339.8v-8.48l0.34-9.56l-0.67-9.56v-22.35h8.35
			v49.95H291.78z"/>
		<path d="M315.14,297.92c-1.57,0-2.86-0.49-3.87-1.48c-1.01-0.99-1.51-2.18-1.51-3.57c0-1.44,0.5-2.64,1.51-3.6
			c1.01-0.96,2.3-1.45,3.87-1.45c1.57,0,2.86,0.46,3.87,1.38c1.01,0.92,1.51,2.08,1.51,3.47c0,1.48-0.49,2.73-1.48,3.74
			C318.06,297.42,316.76,297.92,315.14,297.92z M310.9,339.8v-35.95h8.42v35.95H310.9z"/>
		<path d="M325.57,310.58v-6.73h23.96v6.73H325.57z M343.89,340.27c-3.95,0-7-1.02-9.16-3.06c-2.15-2.04-3.23-5.06-3.23-9.05V295.9
			h8.42v32.04c0,1.71,0.44,3.03,1.31,3.97s2.1,1.41,3.67,1.41c1.88,0,3.46-0.49,4.71-1.48l2.36,5.99c-0.99,0.81-2.2,1.41-3.64,1.82
			C346.89,340.07,345.41,340.27,343.89,340.27z"/>
		<path d="M369.93,346.53l22.22-63.41h7.54l-22.22,63.41H369.93z"/>
		<path d="M421.84,339.8v-47.12h20.6c5.12,0,9.6,0.99,13.46,2.96c3.86,1.98,6.87,4.71,9.02,8.21c2.15,3.5,3.23,7.63,3.23,12.39
			c0,4.71-1.08,8.83-3.23,12.35c-2.15,3.52-5.16,6.27-9.02,8.25c-3.86,1.98-8.35,2.96-13.46,2.96H421.84z M430.59,332.39h11.44
			c3.5,0,6.55-0.67,9.16-2.02c2.6-1.35,4.61-3.23,6.03-5.66c1.41-2.42,2.12-5.25,2.12-8.48c0-3.27-0.71-6.11-2.12-8.52
			s-3.42-4.27-6.03-5.62c-2.6-1.35-5.66-2.02-9.16-2.02h-11.44V332.39z"/>
		<path d="M493.53,340.27c-4,0-7.48-0.8-10.47-2.39c-2.98-1.59-5.3-3.78-6.93-6.56c-1.64-2.78-2.46-5.95-2.46-9.49
			c0-3.59,0.8-6.77,2.39-9.53c1.59-2.76,3.79-4.93,6.6-6.5c2.81-1.57,6-2.36,9.59-2.36c3.5,0,6.62,0.76,9.36,2.29
			c2.74,1.53,4.89,3.68,6.46,6.46c1.57,2.78,2.36,6.06,2.36,9.83c0,0.36-0.01,0.76-0.03,1.21c-0.02,0.45-0.06,0.88-0.1,1.28h-29.96
			v-5.59h25.51l-3.3,1.75c0.05-2.06-0.38-3.88-1.28-5.45c-0.9-1.57-2.12-2.8-3.67-3.7c-1.55-0.9-3.33-1.35-5.35-1.35
			c-2.06,0-3.87,0.45-5.42,1.35c-1.55,0.9-2.76,2.14-3.64,3.74c-0.88,1.59-1.31,3.47-1.31,5.62v1.35c0,2.15,0.49,4.06,1.48,5.72
			c0.99,1.66,2.38,2.94,4.17,3.84c1.79,0.9,3.86,1.35,6.19,1.35c2.02,0,3.84-0.31,5.45-0.94c1.61-0.63,3.05-1.62,4.31-2.96
			l4.51,5.18c-1.62,1.88-3.65,3.33-6.09,4.34S496.67,340.27,493.53,340.27z"/>
		<path d="M518.51,339.8v-49.95h8.42v22.35l-0.67,9.56l0.27,9.56v8.48H518.51z M538.43,340.27c-3.05,0-5.77-0.67-8.15-2.02
			c-2.38-1.35-4.25-3.38-5.62-6.09c-1.37-2.71-2.05-6.16-2.05-10.33c0-4.22,0.71-7.67,2.12-10.37c1.41-2.69,3.32-4.7,5.72-6.03
			c2.4-1.32,5.06-1.99,7.98-1.99c3.54,0,6.68,0.76,9.39,2.29c2.72,1.53,4.87,3.66,6.46,6.39c1.59,2.74,2.39,5.97,2.39,9.69
			s-0.8,6.96-2.39,9.69c-1.59,2.74-3.75,4.88-6.46,6.43C545.11,339.49,541.98,340.27,538.43,340.27z M537.49,333.06
			c2.02,0,3.83-0.45,5.42-1.35c1.59-0.9,2.86-2.2,3.8-3.9c0.94-1.71,1.41-3.7,1.41-5.99c0-2.33-0.47-4.34-1.41-6.03
			c-0.94-1.68-2.21-2.97-3.8-3.87c-1.59-0.9-3.4-1.35-5.42-1.35c-2.02,0-3.84,0.45-5.45,1.35c-1.62,0.9-2.9,2.19-3.84,3.87
			c-0.94,1.68-1.41,3.69-1.41,6.03c0,2.29,0.47,4.29,1.41,5.99c0.94,1.71,2.22,3.01,3.84,3.9
			C533.65,332.62,535.47,333.06,537.49,333.06z"/>
		<path d="M568.93,297.92c-1.57,0-2.86-0.49-3.87-1.48c-1.01-0.99-1.51-2.18-1.51-3.57c0-1.44,0.5-2.64,1.51-3.6
			c1.01-0.96,2.3-1.45,3.87-1.45c1.57,0,2.86,0.46,3.87,1.38c1.01,0.92,1.51,2.08,1.51,3.47c0,1.48-0.49,2.73-1.48,3.74
			C571.84,297.42,570.54,297.92,568.93,297.92z M564.69,339.8v-35.95h8.42v35.95H564.69z"/>
		<path d="M579.36,310.58v-6.73h23.96v6.73H579.36z M597.67,340.27c-3.95,0-7-1.02-9.16-3.06c-2.15-2.04-3.23-5.06-3.23-9.05V295.9
			h8.42v32.04c0,1.71,0.44,3.03,1.31,3.97s2.1,1.41,3.67,1.41c1.88,0,3.46-0.49,4.71-1.48l2.36,5.99c-0.99,0.81-2.2,1.41-3.64,1.82
			C600.68,340.07,599.2,340.27,597.67,340.27z"/>
		<path d="M653.88,340.47c-3.59,0-6.92-0.6-10-1.78c-3.07-1.19-5.75-2.87-8.01-5.05c-2.27-2.18-4.03-4.75-5.28-7.71
			c-1.26-2.96-1.88-6.19-1.88-9.69c0-3.5,0.63-6.73,1.88-9.69c1.26-2.96,3.03-5.53,5.32-7.71c2.29-2.18,4.96-3.86,8.01-5.05
			c3.05-1.19,6.39-1.78,10.03-1.78c3.86,0,7.38,0.66,10.57,1.99c3.19,1.32,5.88,3.29,8.08,5.89l-5.66,5.32
			c-1.71-1.84-3.61-3.22-5.72-4.14c-2.11-0.92-4.4-1.38-6.87-1.38c-2.47,0-4.72,0.4-6.77,1.21s-3.81,1.95-5.32,3.43
			c-1.5,1.48-2.67,3.23-3.5,5.25c-0.83,2.02-1.25,4.24-1.25,6.66c0,2.42,0.41,4.65,1.25,6.66c0.83,2.02,2,3.77,3.5,5.25
			c1.5,1.48,3.28,2.63,5.32,3.43c2.04,0.81,4.3,1.21,6.77,1.21c2.47,0,4.76-0.46,6.87-1.38c2.11-0.92,4.02-2.32,5.72-4.21l5.66,5.39
			c-2.2,2.56-4.89,4.51-8.08,5.86C661.33,339.8,657.79,340.47,653.88,340.47z"/>
		<path d="M690.1,340.27c-2.69,0-5.05-0.46-7.07-1.38c-2.02-0.92-3.58-2.2-4.68-3.84c-1.1-1.64-1.65-3.49-1.65-5.55
			c0-2.02,0.48-3.84,1.45-5.45c0.97-1.62,2.55-2.9,4.75-3.84c2.2-0.94,5.12-1.41,8.75-1.41h10.43v5.59h-9.83
			c-2.87,0-4.8,0.46-5.79,1.38c-0.99,0.92-1.48,2.05-1.48,3.4c0,1.53,0.61,2.74,1.82,3.64c1.21,0.9,2.9,1.35,5.05,1.35
			c2.06,0,3.91-0.47,5.55-1.41c1.64-0.94,2.82-2.33,3.54-4.17l1.41,5.05c-0.81,2.11-2.26,3.75-4.34,4.91
			C695.92,339.69,693.29,340.27,690.1,340.27z M701.41,339.8v-7.27l-0.47-1.55v-12.72c0-2.47-0.74-4.39-2.22-5.76
			c-1.48-1.37-3.73-2.05-6.73-2.05c-2.02,0-4.01,0.32-5.96,0.94c-1.95,0.63-3.6,1.51-4.95,2.63l-3.3-6.13
			c1.93-1.48,4.23-2.59,6.9-3.33c2.67-0.74,5.44-1.11,8.31-1.11c5.21,0,9.23,1.25,12.08,3.74c2.85,2.49,4.27,6.34,4.27,11.54v21.07
			H701.41z"/>
		<path d="M720.12,339.8v-35.95h8.01v9.9l-0.94-2.9c1.08-2.42,2.77-4.26,5.08-5.52c2.31-1.26,5.19-1.88,8.65-1.88v8.01
			c-0.36-0.09-0.7-0.15-1.01-0.17c-0.32-0.02-0.63-0.03-0.94-0.03c-3.19,0-5.72,0.93-7.61,2.79c-1.88,1.86-2.83,4.63-2.83,8.31
			v17.44H720.12z"/>
		<path d="M762.94,340.27c-3.46,0-6.56-0.77-9.32-2.32c-2.76-1.55-4.93-3.69-6.5-6.43c-1.57-2.74-2.36-5.97-2.36-9.69
			s0.78-6.96,2.36-9.69c1.57-2.74,3.74-4.87,6.5-6.39c2.76-1.53,5.87-2.29,9.32-2.29c3.01,0,5.7,0.66,8.08,1.99
			c2.38,1.32,4.26,3.33,5.66,6.03c1.39,2.69,2.09,6.15,2.09,10.37c0,4.17-0.67,7.62-2.02,10.33c-1.35,2.72-3.21,4.75-5.59,6.09
			C768.77,339.6,766.04,340.27,762.94,340.27z M763.95,333.06c2.02,0,3.83-0.45,5.42-1.35c1.59-0.9,2.87-2.2,3.84-3.9
			c0.96-1.71,1.45-3.7,1.45-5.99c0-2.33-0.48-4.34-1.45-6.03c-0.97-1.68-2.24-2.97-3.84-3.87c-1.59-0.9-3.4-1.35-5.42-1.35
			c-2.02,0-3.83,0.45-5.42,1.35c-1.59,0.9-2.87,2.19-3.84,3.87c-0.97,1.68-1.45,3.69-1.45,6.03c0,2.29,0.48,4.29,1.45,5.99
			c0.97,1.71,2.24,3.01,3.84,3.9C760.12,332.62,761.93,333.06,763.95,333.06z M774.86,339.8v-8.48l0.34-9.56l-0.67-9.56v-22.35h8.35
			v49.95H774.86z"/>
	</g>
</g>
</svg>
