<?xml version="1.0" encoding="utf-8"?>
<!-- Generator: Adobe Illustrator 28.0.0, SVG Export Plug-In . SVG Version: 6.00 Build 0)  -->
<svg version="1.1" id="Layer_1" xmlns="http://www.w3.org/2000/svg" xmlns:xlink="http://www.w3.org/1999/xlink" x="0px" y="0px"
	 viewBox="375 87 179 179" style="enable-background:new 0 0 929.78 467.65;" xml:space="preserve">

<g>
	<g>
		<g>
			<path d="M858.91,440.2H70.87c-19.33,0-35.06-15.73-35.06-35.06V62.52c0-19.33,15.73-35.06,35.06-35.06h788.05
				c19.33,0,35.06,15.73,35.06,35.06v342.61C893.98,424.47,878.25,440.2,858.91,440.2z M70.87,30.26
				c-17.79,0-32.26,14.47-32.26,32.26v342.61c0,17.79,14.47,32.26,32.26,32.26h788.05c17.79,0,32.26-14.47,32.26-32.26V62.52
				c0-17.79-14.47-32.26-32.26-32.26H70.87z"/>
		</g>
	</g>
	<g>
		<g>
			<g>
				<path d="M327.52,339.61c-3.59,0-6.92-0.59-10-1.78c-3.07-1.19-5.75-2.87-8.01-5.05c-2.27-2.18-4.03-4.75-5.28-7.71
					c-1.26-2.96-1.88-6.19-1.88-9.69c0-3.5,0.63-6.73,1.88-9.69c1.26-2.96,3.03-5.53,5.32-7.71c2.29-2.18,4.96-3.86,8.01-5.05
					c3.05-1.19,6.39-1.78,10.03-1.78c3.86,0,7.38,0.66,10.57,1.99c3.19,1.32,5.88,3.29,8.08,5.89l-5.66,5.32
					c-1.71-1.84-3.61-3.22-5.72-4.14c-2.11-0.92-4.4-1.38-6.87-1.38s-4.72,0.41-6.77,1.21c-2.04,0.81-3.81,1.95-5.32,3.43
					s-2.67,3.23-3.5,5.25c-0.83,2.02-1.25,4.24-1.25,6.66s0.42,4.65,1.25,6.66c0.83,2.02,2,3.77,3.5,5.25
					c1.5,1.48,3.28,2.62,5.32,3.43s4.3,1.21,6.77,1.21s4.76-0.46,6.87-1.38c2.11-0.92,4.02-2.32,5.72-4.21l5.66,5.39
					c-2.2,2.56-4.89,4.51-8.08,5.86C334.97,338.94,331.43,339.61,327.52,339.61z"/>
				<path d="M363.74,339.41c-2.69,0-5.05-0.46-7.07-1.38c-2.02-0.92-3.58-2.2-4.68-3.84c-1.1-1.64-1.65-3.49-1.65-5.56
					c0-2.02,0.48-3.84,1.45-5.45c0.97-1.62,2.55-2.9,4.75-3.84c2.2-0.94,5.12-1.41,8.75-1.41h10.43v5.59h-9.83
					c-2.87,0-4.8,0.46-5.79,1.38c-0.99,0.92-1.48,2.05-1.48,3.4c0,1.53,0.61,2.74,1.82,3.64c1.21,0.9,2.9,1.35,5.05,1.35
					c2.06,0,3.91-0.47,5.55-1.41c1.64-0.94,2.82-2.33,3.54-4.17l1.41,5.05c-0.81,2.11-2.26,3.75-4.34,4.91
					C369.57,338.83,366.93,339.41,363.74,339.41z M375.05,338.94v-7.27l-0.47-1.55V317.4c0-2.47-0.74-4.39-2.22-5.76
					c-1.48-1.37-3.73-2.05-6.73-2.05c-2.02,0-4.01,0.32-5.96,0.94c-1.95,0.63-3.6,1.51-4.95,2.63l-3.3-6.13
					c1.93-1.48,4.23-2.59,6.9-3.33c2.67-0.74,5.44-1.11,8.31-1.11c5.21,0,9.23,1.24,12.08,3.74c2.85,2.49,4.27,6.34,4.27,11.54
					v21.07H375.05z"/>
				<path d="M404.87,339.41c-3.01,0-5.89-0.39-8.65-1.18c-2.76-0.78-4.95-1.74-6.56-2.86l3.23-6.4c1.62,1.03,3.54,1.88,5.79,2.56
					c2.24,0.67,4.49,1.01,6.73,1.01c2.65,0,4.57-0.36,5.76-1.08c1.19-0.71,1.78-1.68,1.78-2.89c0-0.99-0.4-1.74-1.21-2.26
					c-0.81-0.51-1.86-0.91-3.17-1.18c-1.3-0.27-2.75-0.51-4.34-0.74c-1.59-0.22-3.19-0.53-4.78-0.91c-1.59-0.38-3.04-0.94-4.34-1.68
					c-1.3-0.74-2.36-1.74-3.16-3c-0.81-1.25-1.21-2.92-1.21-4.98c0-2.29,0.65-4.28,1.95-5.96c1.3-1.68,3.13-2.99,5.49-3.91
					c2.36-0.92,5.15-1.38,8.38-1.38c2.42,0,4.87,0.27,7.34,0.81c2.47,0.54,4.51,1.3,6.13,2.29l-3.23,6.4
					c-1.71-1.03-3.42-1.74-5.15-2.12c-1.73-0.38-3.44-0.57-5.15-0.57c-2.56,0-4.46,0.38-5.69,1.14c-1.24,0.76-1.85,1.73-1.85,2.9
					c0,1.08,0.4,1.88,1.21,2.42c0.81,0.54,1.86,0.96,3.16,1.28c1.3,0.32,2.75,0.57,4.34,0.77c1.59,0.2,3.17,0.51,4.75,0.91
					c1.57,0.41,3.02,0.96,4.34,1.65c1.32,0.7,2.39,1.67,3.2,2.93c0.81,1.26,1.21,2.9,1.21,4.91c0,2.25-0.66,4.2-1.99,5.86
					c-1.32,1.66-3.2,2.95-5.62,3.87C411.13,338.95,408.24,339.41,404.87,339.41z"/>
				<path d="M428.44,338.94v-49.95h8.42v23.7l-1.82-2.96c1.26-2.29,3.09-4.05,5.49-5.29c2.4-1.23,5.17-1.85,8.31-1.85
					c2.87,0,5.44,0.56,7.71,1.68c2.27,1.12,4.05,2.84,5.35,5.15c1.3,2.31,1.95,5.28,1.95,8.92v20.6h-8.42v-19.52
					c0-3.19-0.75-5.56-2.26-7.14c-1.5-1.57-3.6-2.36-6.29-2.36c-1.98,0-3.73,0.41-5.25,1.21c-1.53,0.81-2.71,2.01-3.54,3.6
					c-0.83,1.59-1.25,3.6-1.25,6.03v18.18H428.44z"/>
				<path d="M487.27,338.94l21.21-47.12h8.62l21.27,47.12h-9.16l-18.24-42.48h3.5l-18.18,42.48H487.27z M497.03,328.03l2.36-6.87
					h25.45l2.36,6.87H497.03z"/>
				<path d="M543.55,352v-49.01h8.01v8.48l-0.27,9.56l0.67,9.56V352H543.55z M563.48,339.41c-2.92,0-5.58-0.67-7.98-2.02
					c-2.4-1.35-4.31-3.38-5.72-6.09c-1.41-2.71-2.12-6.16-2.12-10.33c0-4.22,0.68-7.68,2.05-10.37c1.37-2.69,3.24-4.7,5.62-6.02
					c2.38-1.32,5.09-1.99,8.15-1.99c3.54,0,6.68,0.76,9.39,2.29c2.72,1.53,4.87,3.66,6.46,6.4c1.59,2.74,2.39,5.97,2.39,9.69
					s-0.8,6.97-2.39,9.73c-1.59,2.76-3.75,4.9-6.46,6.43C570.15,338.65,567.02,339.41,563.48,339.41z M562.53,332.21
					c2.02,0,3.83-0.45,5.42-1.35c1.59-0.9,2.86-2.2,3.8-3.9c0.94-1.71,1.41-3.7,1.41-5.99c0-2.33-0.47-4.34-1.41-6.03
					c-0.94-1.68-2.21-2.97-3.8-3.87c-1.59-0.9-3.4-1.35-5.42-1.35c-2.02,0-3.84,0.45-5.45,1.35c-1.62,0.9-2.9,2.19-3.84,3.87
					c-0.94,1.68-1.41,3.69-1.41,6.03c0,2.29,0.47,4.28,1.41,5.99c0.94,1.71,2.22,3.01,3.84,3.9
					C558.7,331.76,560.51,332.21,562.53,332.21z"/>
				<path d="M589.73,352v-49.01h8.01v8.48l-0.27,9.56l0.67,9.56V352H589.73z M609.66,339.41c-2.92,0-5.58-0.67-7.98-2.02
					c-2.4-1.35-4.31-3.38-5.72-6.09c-1.41-2.71-2.12-6.16-2.12-10.33c0-4.22,0.68-7.68,2.05-10.37c1.37-2.69,3.24-4.7,5.62-6.02
					c2.38-1.32,5.09-1.99,8.15-1.99c3.54,0,6.68,0.76,9.39,2.29c2.72,1.53,4.87,3.66,6.46,6.4c1.59,2.74,2.39,5.97,2.39,9.69
					s-0.8,6.97-2.39,9.73c-1.59,2.76-3.75,4.9-6.46,6.43C616.33,338.65,613.2,339.41,609.66,339.41z M608.71,332.21
					c2.02,0,3.83-0.45,5.42-1.35c1.59-0.9,2.86-2.2,3.8-3.9c0.94-1.71,1.41-3.7,1.41-5.99c0-2.33-0.47-4.34-1.41-6.03
					c-0.94-1.68-2.21-2.97-3.8-3.87c-1.59-0.9-3.4-1.35-5.42-1.35c-2.02,0-3.84,0.45-5.45,1.35c-1.62,0.9-2.9,2.19-3.84,3.87
					c-0.94,1.68-1.41,3.69-1.41,6.03c0,2.29,0.47,4.28,1.41,5.99c0.94,1.71,2.22,3.01,3.84,3.9
					C604.88,331.76,606.69,332.21,608.71,332.21z"/>
			</g>
		</g>
		<g>
			<path fill="#00D632" d="M541.51,119.89c-3.41-9.33-10.76-16.68-20.09-20.09c-8.68-2.73-16.61-2.73-32.48-2.73h-48.1
				c-15.87,0-23.8,0-32.48,2.73c-9.33,3.41-16.67,10.76-20.09,20.09c-2.73,8.58-2.73,16.56-2.73,32.48v48.08
				c0,15.89,0,23.83,2.73,32.51c3.41,9.33,10.76,16.67,20.09,20.09c8.58,2.72,16.56,2.72,32.48,2.72h48.1
				c15.87,0,23.81,0,32.48-2.78c9.33-3.41,16.67-10.76,20.09-20.09c2.73-8.58,2.73-16.56,2.73-32.48V152.4
				C544.24,136.51,544.24,128.57,541.51,119.89z M501.51,149.65l-6.2,6.45c-1.17,1.24-3.23,1.24-4.46,0l0.05,0.05
				c-5.23-4.71-13.24-8.16-21.58-8.16c-6.54,0-13.07,2.38-13.07,8.38c0,6.17,6.99,8.23,15.08,11.23
				c14.13,4.89,25.79,10.89,25.79,25.12c0,15.45-11.7,26.04-30.91,27.33l-1.74,8.41c-0.31,1.53-1.66,2.63-3.22,2.63l-12.03-0.1
				c-2.06-0.02-3.57-1.93-3.15-3.99l1.83-8.85c-7.52-2.06-14.11-5.78-19.32-10.91c-1.31-1.32-1.31-3.44,0-4.76l6.7-6.7c0,0,0,0,0,0
				c1.26-1.26,3.3-1.25,4.56,0c6.45,6.47,14.78,9.13,22.72,9.13c8.73,0,14.63-3.62,14.63-9.8c0-6-5.92-7.59-17.11-11.85
				c-11.83-4.24-23.01-10.42-23.01-24.8c0-16.61,13.54-24.72,29.51-25.54l1.74-8.38c0.3-1.51,1.63-2.61,3.18-2.63h12
				c2.06,0,3.59,1.94,3.17,3.99l-1.96,9.42c6.13,2.04,11.79,5.28,16.66,9.52C502.75,146.18,502.83,148.41,501.51,149.65z"/>
		</g>
	</g>
</g>
</svg>
