<?xml version="1.0" encoding="utf-8"?>
<!-- Generator: Adobe Illustrator 28.0.0, SVG Export Plug-In . SVG Version: 6.00 Build 0)  -->
<svg version="1.1" id="Layer_1" xmlns="http://www.w3.org/2000/svg" xmlns:xlink="http://www.w3.org/1999/xlink" x="0px" y="0px"
	 viewBox="267 173 396 119" style="enable-background:new 0 0 929.78 467.65;" xml:space="preserve">

<g>
	<path fill-rule="evenodd" clip-rule="evenodd" fill="#E9778D" d="M345.96,191.06h-18.11c-0.3,19.01-11.38,35.48-27.24,43.56l27.99,40.71h22.76l-25.45-36.97
		C338.48,225.94,345.66,209.17,345.96,191.06L345.96,191.06z M279.2,275.33h18.71v-84.27H279.2V275.33z M607.47,222.95
		c-4.79-3.44-10.78-5.39-17.22-5.39c-16.47,0-29.64,13.32-29.64,29.64c0.04,16.35,13.29,29.6,29.64,29.64
		c6.44,0,12.28-2.09,17.22-5.39v3.89h14.67v-56.28h-14.67V222.95z M591.6,262.31c-8.83,0-15.87-6.73-15.87-15.12
		c0-8.38,7.19-15.12,15.87-15.12c8.83,0,15.87,6.73,15.87,15.12C607.62,255.58,600.43,262.31,591.6,262.31z M639.95,255.42
		c-5.84,0-10.62,4.79-10.62,10.63c0,5.84,4.79,10.63,10.62,10.63c5.83,0,10.63-4.79,10.63-10.63c0.03-5.84-4.69-10.6-10.53-10.63
		C640.02,255.42,639.98,255.42,639.95,255.42z M530.64,217.55c-6.73,0-13.17,2.09-17.36,7.78v-6.29h-16.92v56.29h16.92V244.5
		c0-8.53,5.69-12.73,12.73-12.73c7.33,0,11.67,4.49,11.67,12.58v30.84h16.91V239.4C554.59,226.53,544.11,217.54,530.64,217.55
		L530.64,217.55z M429.9,222.95c-4.79-3.44-10.78-5.39-17.22-5.39c-16.47,0-29.64,13.32-29.64,29.64
		c0.04,16.35,13.29,29.6,29.64,29.64c6.44,0,12.27-2.09,17.22-5.39v3.89h14.67v-56.28H429.9V222.95z M414.18,262.31
		c-8.83,0-15.87-6.73-15.87-15.12c0-8.38,7.19-15.12,15.87-15.12c8.83,0,15.87,6.73,15.87,15.12
		C430.05,255.58,422.86,262.31,414.18,262.31z M471.92,226.69v-7.49H455v56.29h16.92V246c0-8.53,9.58-12.27,16.32-10.48h0.15V219.2
		C481.5,219.04,475.21,222.04,471.92,226.69L471.92,226.69z M358.23,275.33h17.96v-84.27h-17.96V275.33z"/>
	<g>
		<g>
			<path d="M858.91,440.31H70.87c-19.33,0-35.06-15.73-35.06-35.06V62.64c0-19.33,15.73-35.06,35.06-35.06h788.05
				c19.33,0,35.06,15.73,35.06,35.06v342.61C893.98,424.58,878.25,440.31,858.91,440.31z M70.87,30.38
				c-17.79,0-32.26,14.47-32.26,32.26v342.61c0,17.79,14.47,32.26,32.26,32.26h788.05c17.79,0,32.26-14.47,32.26-32.26V62.64
				c0-17.79-14.47-32.26-32.26-32.26H70.87z"/>
		</g>
	</g>
</g>
</svg>
