<?xml version="1.0" encoding="utf-8"?>
<!-- Generator: Adobe Illustrator 28.0.0, SVG Export Plug-In . SVG Version: 6.00 Build 0)  -->
<svg version="1.1" id="Layer_1" xmlns="http://www.w3.org/2000/svg" xmlns:xlink="http://www.w3.org/1999/xlink" x="0px" y="0px"
	 viewBox="338 98 244 268" style="enable-background:new 0 0 929.78 467.65;" xml:space="preserve">

<g>
	<g>
		<g>
			<path d="M858.91,438.97H70.86c-19.33,0-35.06-15.73-35.06-35.06V61.29c0-19.33,15.73-35.06,35.06-35.06h788.05
				c19.33,0,35.06,15.73,35.06,35.06V403.9C893.98,423.24,878.25,438.97,858.91,438.97z M70.86,29.03
				c-17.79,0-32.26,14.47-32.26,32.26V403.9c0,17.79,14.47,32.26,32.26,32.26h788.05c17.79,0,32.26-14.47,32.26-32.26V61.29
				c0-17.79-14.47-32.26-32.26-32.26H70.86z"/>
		</g>
	</g>
	<g>
		<g>
			<path fill="#009CDE" d="M542.24,145.21c-2.42-4.63-5.97-8.42-10.57-11.33c-0.22-0.13-0.44-0.26-0.66-0.39
				c1.26,4.03,1.9,8.63,1.9,13.77c0,16.96-7.12,30.86-21.2,41.25c-13.93,10.3-33.59,15.51-58.45,15.51h-12.45L430.4,249.3h-16.3
				l-2.99,12.51h32.92l10.45-45.28h14.81c24.2,0,43.28-5.03,56.66-14.93c6.63-4.91,11.69-10.66,14.99-17.08
				c3.3-6.42,4.97-13.75,4.97-21.75C545.91,155.78,544.67,149.88,542.24,145.21z"/>
			<path fill="#0F3572" d="M527.08,131.45c-0.26-0.6-0.53-1.18-0.82-1.74c-0.05-0.1-0.11-0.19-0.16-0.28
				c-0.39-0.73-0.82-1.44-1.27-2.13c-2.32-3.55-5.36-6.53-9.14-8.92c-4.72-2.94-10.45-5.03-16.99-6.24
				c-6.63-1.21-14.54-1.85-23.5-1.85h-48.76L395.09,246.3h16.66h1.52h1.55h13.22l10.45-45.28h14.81c24.2,0,43.28-5.03,56.66-14.93
				c6.63-4.91,11.69-10.66,14.99-17.08c3.3-6.42,4.97-13.75,4.97-21.75C529.92,141.12,528.96,135.81,527.08,131.45z M494.42,152.24
				c-0.27,4.24-1.12,7.36-3.73,10.96c-2.57,3.6-5.6,5.94-9.66,7.87c-2.45,1.15-5,1.91-7.66,2.27s-5.85,0.58-9.57,0.58h-17.9
				L455.93,138h16.26c4.15,0,7.48,0.06,9.99,0.64c2.51,0.55,4.57,1.3,6.12,2.24c2.15,1.27,3.88,2.82,4.88,4.79
				C494.42,147.97,494.58,149.45,494.42,152.24z"/>
		</g>
	</g>
	<g>
		<path d="M353.74,338.57v-47.12h19.39c4.17,0,7.75,0.67,10.74,2.02c2.98,1.35,5.28,3.28,6.9,5.79c1.62,2.51,2.42,5.5,2.42,8.95
			c0,3.46-0.81,6.44-2.42,8.95c-1.62,2.51-3.92,4.44-6.9,5.79c-2.99,1.35-6.56,2.02-10.74,2.02h-14.54l3.9-4.11v17.71H353.74z
			 M362.5,321.81l-3.9-4.24h14.14c3.86,0,6.76-0.82,8.72-2.46c1.95-1.64,2.93-3.94,2.93-6.9c0-3.01-0.98-5.32-2.93-6.93
			c-1.95-1.62-4.86-2.42-8.72-2.42h-14.14l3.9-4.31V321.81z"/>
		<path d="M411.64,339.04c-2.69,0-5.05-0.46-7.07-1.38c-2.02-0.92-3.58-2.2-4.68-3.84c-1.1-1.64-1.65-3.49-1.65-5.55
			c0-2.02,0.48-3.84,1.45-5.45c0.96-1.62,2.55-2.9,4.74-3.84c2.2-0.94,5.12-1.41,8.75-1.41h10.43v5.59h-9.83
			c-2.87,0-4.8,0.46-5.79,1.38c-0.99,0.92-1.48,2.05-1.48,3.4c0,1.53,0.61,2.74,1.82,3.64c1.21,0.9,2.9,1.35,5.05,1.35
			c2.06,0,3.91-0.47,5.55-1.41c1.64-0.94,2.82-2.33,3.54-4.17l1.41,5.05c-0.81,2.11-2.26,3.75-4.34,4.91
			C417.46,338.46,414.83,339.04,411.64,339.04z M422.95,338.57v-7.27l-0.47-1.55v-12.72c0-2.47-0.74-4.39-2.22-5.76
			c-1.48-1.37-3.73-2.05-6.73-2.05c-2.02,0-4,0.32-5.96,0.94c-1.95,0.63-3.6,1.51-4.95,2.63l-3.3-6.13c1.93-1.48,4.23-2.59,6.9-3.33
			c2.67-0.74,5.44-1.11,8.31-1.11c5.2,0,9.23,1.25,12.08,3.74c2.85,2.49,4.28,6.34,4.28,11.54v21.07H422.95z"/>
		<path d="M443.75,352.1c-1.75,0-3.5-0.29-5.25-0.88c-1.75-0.58-3.21-1.39-4.38-2.42l3.37-6.19c0.85,0.76,1.82,1.37,2.9,1.82
			c1.08,0.45,2.17,0.67,3.3,0.67c1.53,0,2.76-0.38,3.7-1.15c0.94-0.76,1.82-2.04,2.62-3.84l2.09-4.71l0.67-1.01l13.6-31.77h8.08
			l-16.83,38.84c-1.12,2.69-2.37,4.82-3.74,6.39s-2.89,2.67-4.58,3.3C447.62,351.79,445.77,352.1,443.75,352.1z M451.16,339.85
			l-16.22-37.23h8.75l13.2,31.03L451.16,339.85z"/>
		<path d="M480.51,338.57v-47.12h19.39c4.17,0,7.75,0.67,10.74,2.02c2.98,1.35,5.28,3.28,6.9,5.79c1.62,2.51,2.42,5.5,2.42,8.95
			c0,3.46-0.81,6.44-2.42,8.95c-1.62,2.51-3.92,4.44-6.9,5.79c-2.99,1.35-6.56,2.02-10.74,2.02h-14.54l3.9-4.11v17.71H480.51z
			 M489.26,321.81l-3.9-4.24h14.14c3.86,0,6.76-0.82,8.72-2.46c1.95-1.64,2.93-3.94,2.93-6.9c0-3.01-0.98-5.32-2.93-6.93
			c-1.95-1.62-4.86-2.42-8.72-2.42h-14.14l3.9-4.31V321.81z"/>
		<path d="M538.4,339.04c-2.69,0-5.05-0.46-7.07-1.38c-2.02-0.92-3.58-2.2-4.68-3.84c-1.1-1.64-1.65-3.49-1.65-5.55
			c0-2.02,0.48-3.84,1.45-5.45c0.96-1.62,2.55-2.9,4.74-3.84c2.2-0.94,5.12-1.41,8.75-1.41h10.43v5.59h-9.83
			c-2.87,0-4.8,0.46-5.79,1.38c-0.99,0.92-1.48,2.05-1.48,3.4c0,1.53,0.61,2.74,1.82,3.64c1.21,0.9,2.9,1.35,5.05,1.35
			c2.06,0,3.91-0.47,5.55-1.41c1.64-0.94,2.82-2.33,3.54-4.17l1.41,5.05c-0.81,2.11-2.26,3.75-4.34,4.91
			C544.23,338.46,541.59,339.04,538.4,339.04z M549.71,338.57v-7.27l-0.47-1.55v-12.72c0-2.47-0.74-4.39-2.22-5.76
			c-1.48-1.37-3.73-2.05-6.73-2.05c-2.02,0-4,0.32-5.96,0.94c-1.95,0.63-3.6,1.51-4.95,2.63l-3.3-6.13c1.93-1.48,4.23-2.59,6.9-3.33
			c2.67-0.74,5.44-1.11,8.31-1.11c5.2,0,9.23,1.25,12.08,3.74c2.85,2.49,4.28,6.34,4.28,11.54v21.07H549.71z"/>
		<path d="M568.42,338.57v-49.95h8.42v49.95H568.42z"/>
	</g>
</g>
</svg>
